<svg xmlns="http://www.w3.org/2000/svg" xmlns:xlink="http://www.w3.org/1999/xlink" width="276.185" height="56.145" viewBox="0 0 276.185 56.145">
  <defs>
    <linearGradient id="linear-gradient" y1="0.478" x2="1" y2="0.5" gradientUnits="objectBoundingBox">
      <stop offset="0" stop-color="#d5a1ff"/>
      <stop offset="1" stop-color="#d5a1ff" stop-opacity="0"/>
    </linearGradient>
  </defs>
  <g id="logoWO" transform="translate(2 2)">
    <rect id="Rectangle_58" data-name="Rectangle 58" width="50.279" height="50.279" transform="translate(0.933 0.933)" opacity="0.4" fill="url(#linear-gradient)"/>
    <path id="Path_25" data-name="Path 25" d="M55.156,55.156H4.54V4.54H55.156ZM4.877,54.819H54.819V4.877H4.877V54.819Z" transform="translate(-3.776 -3.776)" fill="#c389f1"/>
    <rect id="Rectangle_59" data-name="Rectangle 59" width="5.867" height="5.867" transform="translate(54.145 3.867) rotate(180)" fill="#c389f1"/>
    <rect id="Rectangle_60" data-name="Rectangle 60" width="5.867" height="5.867" transform="translate(3.867 54.145) rotate(180)" fill="#c389f1"/>
    <rect id="Rectangle_61" data-name="Rectangle 61" width="5.867" height="5.867" transform="translate(3.867 3.867) rotate(180)" fill="#c389f1"/>
    <rect id="Rectangle_62" data-name="Rectangle 62" width="5.867" height="5.867" transform="translate(54.145 54.145) rotate(180)" fill="#c389f1"/>
    <path id="Path_26" data-name="Path 26" d="M76.129,89.845q-.222.922-.369,1.769-.136.783-.209,1.485c-.039-.178-.079-.36-.123-.545a28.2,28.2,0,0,0-.811-2.711L71.41,80.737H65.326l-3.207,9.106a18.962,18.962,0,0,0-.737,2.746c-.032.178-.061.352-.086.524-.056-.343-.118-.7-.19-1.077q-.2-1.051-.5-2.194L57.583,78.19H49.62L56.957,104h6.637L68.1,91.406,73.18,104h6.268L86.859,78.19H79.153L76.129,89.842Z" transform="translate(-41.266 -65.026)" fill="#fff"/>
    <path id="Path_27" data-name="Path 27" d="M293.772,94.49H304.06V88.444H293.772V85.163h11.652V78.71H286.14v25.809h19.947V98.068H293.772Z" transform="translate(-237.967 -65.459)" fill="#fff"/>
    <path id="Path_28" data-name="Path 28" d="M434.447,86.711a11.666,11.666,0,0,0-2.968-1.623,21.153,21.153,0,0,0-3.724-1.013c-.295-.049-.658-.116-1.088-.2a10.211,10.211,0,0,1-1.291-.35,3.911,3.911,0,0,1-1.069-.535.949.949,0,0,1-.424-.793.934.934,0,0,1,.332-.756,2.162,2.162,0,0,1,.921-.406,6.841,6.841,0,0,1,1.438-.13,7.523,7.523,0,0,1,3.687.976,8.527,8.527,0,0,1,1.7,1.271l4.645-4.461a10.76,10.76,0,0,0-2.286-2.323,9.681,9.681,0,0,0-3.281-1.53,18.831,18.831,0,0,0-4.867-.534,12.724,12.724,0,0,0-3.854.589,10.881,10.881,0,0,0-3.318,1.7,8.531,8.531,0,0,0-2.323,2.655,6.9,6.9,0,0,0-.867,3.429,7.926,7.926,0,0,0,.535,2.987,6.543,6.543,0,0,0,1.641,2.36,9.9,9.9,0,0,0,2.766,1.769,21.765,21.765,0,0,0,3.872,1.254q.442.111,1.014.221c.38.074.774.165,1.18.276a7.173,7.173,0,0,1,1.125.406,2.694,2.694,0,0,1,.83.571,1.137,1.137,0,0,1,.313.811,1.094,1.094,0,0,1-.295.811,1.725,1.725,0,0,1-.849.424,5.545,5.545,0,0,1-1.254.13,10.774,10.774,0,0,1-3.78-.756,9.172,9.172,0,0,1-3.854-3.116l-4.61,5.162a15.657,15.657,0,0,0,3.005,2.766,13.01,13.01,0,0,0,3.908,1.825,18.591,18.591,0,0,0,5.143.645,14.158,14.158,0,0,0,5.345-.976,8.74,8.74,0,0,0,3.817-2.894,7.773,7.773,0,0,0,1.419-4.756,8.07,8.07,0,0,0-.682-3.448,6.492,6.492,0,0,0-1.955-2.433Z" transform="translate(-344.667 -61.791)" fill="#fff"/>
    <path id="Path_29" data-name="Path 29" d="M574.827,86.711a11.666,11.666,0,0,0-2.968-1.623,21.151,21.151,0,0,0-3.724-1.013c-.295-.049-.658-.116-1.088-.2a10.21,10.21,0,0,1-1.291-.35,3.911,3.911,0,0,1-1.069-.535.949.949,0,0,1-.424-.793.934.934,0,0,1,.332-.756,2.163,2.163,0,0,1,.921-.406,6.841,6.841,0,0,1,1.438-.13,7.522,7.522,0,0,1,3.687.976,8.526,8.526,0,0,1,1.7,1.271l4.645-4.461a10.76,10.76,0,0,0-2.286-2.323,9.681,9.681,0,0,0-3.281-1.53,18.831,18.831,0,0,0-4.867-.534,12.725,12.725,0,0,0-3.854.589,10.882,10.882,0,0,0-3.318,1.7,8.531,8.531,0,0,0-2.323,2.655,6.9,6.9,0,0,0-.867,3.429,7.926,7.926,0,0,0,.535,2.987,6.542,6.542,0,0,0,1.641,2.36,9.9,9.9,0,0,0,2.766,1.769A21.765,21.765,0,0,0,565,91.04q.442.111,1.013.221c.38.074.774.165,1.18.276a7.174,7.174,0,0,1,1.125.406,2.7,2.7,0,0,1,.83.571,1.137,1.137,0,0,1,.313.811,1.094,1.094,0,0,1-.295.811,1.725,1.725,0,0,1-.849.424,5.545,5.545,0,0,1-1.254.13,10.774,10.774,0,0,1-3.78-.756,9.172,9.172,0,0,1-3.854-3.116l-4.61,5.162a15.657,15.657,0,0,0,3.005,2.766,13.01,13.01,0,0,0,3.908,1.825,18.591,18.591,0,0,0,5.143.645,14.159,14.159,0,0,0,5.345-.976,8.74,8.74,0,0,0,3.817-2.894,7.773,7.773,0,0,0,1.419-4.756,8.071,8.071,0,0,0-.682-3.448,6.493,6.493,0,0,0-1.955-2.433Z" transform="translate(-461.413 -61.791)" fill="#fff"/>
    <path id="Path_30" data-name="Path 30" d="M720.822,94.49h10.286V88.444H720.822V85.163h11.652V78.71H713.19v25.809h19.947V98.068H720.822Z" transform="translate(-593.12 -65.459)" fill="#fff"/>
    <path id="Path_31" data-name="Path 31" d="M867.445,78.71H859.48v25.809h19.026V97.734H867.445Z" transform="translate(-714.782 -65.459)" fill="#fff"/>
    <path id="Path_32" data-name="Path 32" d="M1086.171,78.136a13.367,13.367,0,0,0-4.406-2.8,16.126,16.126,0,0,0-11.154,0,13.328,13.328,0,0,0-4.424,2.8,12.4,12.4,0,0,0-2.894,4.258,14.849,14.849,0,0,0,0,10.783,12.371,12.371,0,0,0,2.894,4.276,13.3,13.3,0,0,0,4.424,2.8,15.259,15.259,0,0,0,5.6.995,14.918,14.918,0,0,0,5.549-.995,13.367,13.367,0,0,0,4.406-2.8,12.371,12.371,0,0,0,2.894-4.276,14.151,14.151,0,0,0,1.014-5.419,13.826,13.826,0,0,0-1.014-5.364A12.43,12.43,0,0,0,1086.171,78.136Zm-4.626,12.093a5.76,5.76,0,0,1-1.217,1.936,5.435,5.435,0,0,1-1.844,1.271,6.22,6.22,0,0,1-4.61,0,5.459,5.459,0,0,1-1.844-1.271,5.76,5.76,0,0,1-1.217-1.936,7.193,7.193,0,0,1,0-4.867,5.76,5.76,0,0,1,1.217-1.936,5.435,5.435,0,0,1,1.844-1.271,6.22,6.22,0,0,1,4.61,0,5.459,5.459,0,0,1,1.844,1.271,5.76,5.76,0,0,1,1.217,1.936,7.191,7.191,0,0,1,0,4.867Z" transform="translate(-883.439 -61.824)" fill="#fff"/>
    <path id="Path_33" data-name="Path 33" d="M1268.825,94.269a3.723,3.723,0,0,1-.48,1.9,3.568,3.568,0,0,1-1.291,1.31,3.625,3.625,0,0,1-1.88.48,3.386,3.386,0,0,1-1.788-.48,3.341,3.341,0,0,1-1.236-1.31,3.958,3.958,0,0,1-.443-1.9V78.71h-8.037V94.6a9.445,9.445,0,0,0,1.475,5.236,10.178,10.178,0,0,0,4.074,3.594,14.191,14.191,0,0,0,11.909,0,10.178,10.178,0,0,0,4.074-3.594,9.445,9.445,0,0,0,1.475-5.236V78.71h-7.854V94.269Z" transform="translate(-1042.608 -65.459)" fill="#fff"/>
    <path id="Path_34" data-name="Path 34" d="M1446.322,82.341a13.037,13.037,0,0,0-4.241-2.673,14.485,14.485,0,0,0-5.345-.958H1425.38v25.809h11.355a14.444,14.444,0,0,0,5.345-.958,13.009,13.009,0,0,0,4.241-2.673,11.7,11.7,0,0,0,2.783-4.093,14.279,14.279,0,0,0,0-10.379A11.752,11.752,0,0,0,1446.322,82.341Zm-4.682,11.724A5.73,5.73,0,0,1,1440.5,96a5.356,5.356,0,0,1-1.732,1.271,5.188,5.188,0,0,1-2.212.461h-3.207V85.493h3.207a5.188,5.188,0,0,1,2.212.461,5.386,5.386,0,0,1,1.732,1.273,5.73,5.73,0,0,1,1.143,1.936,7.607,7.607,0,0,1,0,4.9Z" transform="translate(-1185.409 -65.459)" fill="#fff"/>
    <path id="Path_35" data-name="Path 35" d="M1591.592,191.578a3.646,3.646,0,0,0-2.692-.958,3.537,3.537,0,0,0-2.636,1.032,3.625,3.625,0,0,0-1.014,2.655,3.7,3.7,0,0,0,.958,2.729,3.641,3.641,0,0,0,2.692.96,3.539,3.539,0,0,0,2.636-1.032,3.631,3.631,0,0,0,1.014-2.655,3.7,3.7,0,0,0-.958-2.729Z" transform="translate(-1318.364 -158.528)" fill="#c389f1"/>
  </g>
</svg>
