<svg xmlns="http://www.w3.org/2000/svg" xmlns:xlink="http://www.w3.org/1999/xlink" width="47.291" height="28.867" viewBox="0 0 47.291 28.867">
  <defs>
    <linearGradient id="linear-gradient" y1="0.478" x2="1" y2="0.5" gradientUnits="objectBoundingBox">
      <stop offset="0" stop-color="#d5a1ff"/>
      <stop offset="1" stop-color="#d5a1ff" stop-opacity="0"/>
    </linearGradient>
  </defs>
  <g id="logoWO-mobile" transform="translate(2 2)">
    <rect id="Rectangle_58" data-name="Rectangle 58" width="25.851" height="25.851" transform="translate(-0.492 -0.492)" opacity="0.4" fill="url(#linear-gradient)"/>
    <path id="Path_25" data-name="Path 25" d="M30.564,30.564H4.54V4.54H30.564ZM4.713,30.391H30.391V4.713H4.713V30.391Z" transform="translate(-5.119 -5.119)" fill="#c389f1"/>
    <rect id="Rectangle_59" data-name="Rectangle 59" width="3.017" height="3.017" transform="translate(26.867 1.017) rotate(180)" fill="#c389f1"/>
    <rect id="Rectangle_60" data-name="Rectangle 60" width="3.016" height="3.016" transform="translate(1.017 26.867) rotate(180)" fill="#c389f1"/>
    <rect id="Rectangle_61" data-name="Rectangle 61" width="3.016" height="3.016" transform="translate(1.017 1.016) rotate(180)" fill="#c389f1"/>
    <rect id="Rectangle_62" data-name="Rectangle 62" width="3.017" height="3.017" transform="translate(26.867 26.867) rotate(180)" fill="#c389f1"/>
    <path id="Path_26" data-name="Path 26" d="M63.25,84.182q-.114.474-.19.91-.07.4-.107.763c-.02-.092-.041-.185-.063-.28a14.5,14.5,0,0,0-.417-1.394L60.823,79.5H57.7l-1.649,4.682a9.749,9.749,0,0,0-.379,1.412c-.016.092-.031.181-.044.269-.029-.177-.061-.361-.1-.554q-.1-.54-.256-1.128L53.714,78.19H49.62l3.772,13.27H56.8l2.318-6.475,2.611,6.475h3.223l3.81-13.27H64.8L63.25,84.181Z" transform="translate(-46.297 -72.394)" fill="#fff"/>
    <path id="Path_32" data-name="Path 32" d="M1074.563,76.292a6.87,6.87,0,0,0-2.265-1.44,8.291,8.291,0,0,0-5.734,0,6.851,6.851,0,0,0-2.275,1.44,6.374,6.374,0,0,0-1.488,2.189,7.633,7.633,0,0,0,0,5.544,6.359,6.359,0,0,0,1.488,2.2,6.838,6.838,0,0,0,2.275,1.44,7.844,7.844,0,0,0,2.881.512,7.669,7.669,0,0,0,2.853-.512,6.87,6.87,0,0,0,2.265-1.44,6.359,6.359,0,0,0,1.488-2.2,7.275,7.275,0,0,0,.521-2.786,7.108,7.108,0,0,0-.521-2.758A6.392,6.392,0,0,0,1074.563,76.292Zm-2.379,6.218a2.961,2.961,0,0,1-.626,1,2.794,2.794,0,0,1-.948.654,3.2,3.2,0,0,1-2.37,0,2.808,2.808,0,0,1-.948-.654,2.963,2.963,0,0,1-.626-1,3.7,3.7,0,0,1,0-2.5,2.963,2.963,0,0,1,.626-1,2.8,2.8,0,0,1,.948-.654,3.2,3.2,0,0,1,2.37,0,2.806,2.806,0,0,1,.948.654,2.961,2.961,0,0,1,.626,1,3.7,3.7,0,0,1,0,2.5Z" transform="translate(-1037.923 -68.855)" fill="#fff"/>
    <path id="Path_104" data-name="Path 104" d="M1588.511,191.113a1.875,1.875,0,0,0-1.384-.493,1.819,1.819,0,0,0-1.356.531,1.864,1.864,0,0,0-.521,1.365,1.9,1.9,0,0,0,.493,1.4,1.872,1.872,0,0,0,1.384.493,1.82,1.82,0,0,0,1.356-.531,1.867,1.867,0,0,0,.521-1.365,1.9,1.9,0,0,0-.493-1.4Z" transform="translate(-1543.712 -175.092)" fill="#c389f1"/>
  </g>
</svg>
