<svg xmlns="http://www.w3.org/2000/svg" xmlns:xlink="http://www.w3.org/1999/xlink" width="122.981" height="122.76" viewBox="0 0 122.981 122.76">
  <defs>
    <clipPath id="clip-path">
      <rect id="Rectangle_204" data-name="Rectangle 204" width="122.981" height="122.76" transform="translate(0)" fill="#fff"/>
    </clipPath>
  </defs>
  <g id="adobeIllustrator" clip-path="url(#clip-path)">
    <g id="Adobe_Illustrator_CC_icon" transform="translate(0 1.427)">
      <path id="Path_87" data-name="Path 87" d="M21.778,0H101.2a21.76,21.76,0,0,1,21.778,21.778V98.129A21.76,21.76,0,0,1,101.2,119.906H21.778A21.76,21.76,0,0,1,0,98.129V21.778A21.76,21.76,0,0,1,21.778,0Z" fill="#300"/>
      <path id="Path_88" data-name="Path 88" d="M72.247,85.223H53.184L49.29,97.264a.9.9,0,0,1-.974.717H38.683c-.564,0-.717-.307-.564-.922l16.5-47.5c.154-.512.307-1.076.512-1.691a17.9,17.9,0,0,0,.307-3.331.508.508,0,0,1,.41-.564H69.121c.41,0,.615.154.666.41l18.7,52.779c.154.564,0,.82-.512.82H77.268a.774.774,0,0,1-.82-.564Zm-16.09-10.4H69.172c-.307-1.076-.717-2.357-1.179-3.689-.461-1.384-.922-2.87-1.384-4.407-.512-1.588-.974-3.126-1.486-4.714s-.974-3.075-1.384-4.561c-.41-1.435-.769-2.767-1.127-4h-.1a62.917,62.917,0,0,1-1.742,6.61c-.769,2.46-1.537,5.022-2.357,7.584-.717,2.613-1.486,5.022-2.255,7.174ZM99.917,52.94a6.342,6.342,0,0,1-4.561-1.793,6.657,6.657,0,0,1-1.742-4.714,6.029,6.029,0,0,1,1.845-4.561,6.562,6.562,0,0,1,4.561-1.793,6.136,6.136,0,0,1,4.663,1.793,7.045,7.045,0,0,1-.1,9.275,6.025,6.025,0,0,1-4.663,1.793ZM94.178,97.418V57.962c0-.512.2-.717.666-.717H104.99c.461,0,.666.256.666.717V97.418c0,.564-.2.82-.666.82H94.947A.717.717,0,0,1,94.178,97.418Z" transform="translate(-12.806 -13.484)" fill="#ff9a00"/>
    </g>
  </g>
</svg>
