<svg xmlns="http://www.w3.org/2000/svg" xmlns:xlink="http://www.w3.org/1999/xlink" width="122.981" height="122.76" viewBox="0 0 122.981 122.76">
  <defs>
    <clipPath id="clip-path">
      <rect id="Rectangle_201" data-name="Rectangle 201" width="122.981" height="122.76" transform="translate(0)" fill="#fff"/>
    </clipPath>
  </defs>
  <g id="adobeXd" clip-path="url(#clip-path)">
    <g id="Layer_2_1_" transform="translate(0 1.427)">
      <g id="Surfaces">
        <g id="UI_UX_Surface">
          <g id="Outline_no_shadow">
            <path id="Path_81" data-name="Path 81" d="M21.778,0H101.2a21.76,21.76,0,0,1,21.778,21.778V98.129A21.76,21.76,0,0,1,101.2,119.906H21.778A21.76,21.76,0,0,1,0,98.129V21.778A21.76,21.76,0,0,1,21.778,0Z" fill="#470137"/>
          </g>
        </g>
      </g>
      <g id="Outlined_Mnemonics_Logos" transform="translate(17.915 26.279)">
        <g id="Xd">
          <path id="Path_82" data-name="Path 82" d="M73.75,47.1,58.378,72.467l16.4,26.9a.882.882,0,0,1,.1.615c-.051.2-.256.051-.564.1H62.58c-.82,0-1.384-.051-1.742-.564-1.076-2.152-2.2-4.253-3.279-6.405-1.076-2.1-2.255-4.253-3.484-6.456S51.614,82.254,50.384,80h-.1c-1.076,2.2-2.255,4.407-3.433,6.61s-2.357,4.407-3.484,6.559c-1.179,2.152-2.357,4.356-3.536,6.456-.2.512-.615.564-1.179.564H27.376c-.2,0-.359.1-.359-.154a.712.712,0,0,1,.1-.564L43.056,73.338,27.53,47.051c-.154-.2-.2-.41-.1-.512a.594.594,0,0,1,.512-.2H39.572a3.024,3.024,0,0,1,.717.1,1.453,1.453,0,0,1,.512.461c.974,2.2,2.1,4.407,3.279,6.61,1.23,2.2,2.408,4.356,3.689,6.508,1.23,2.152,2.357,4.3,3.433,6.508h.1c1.076-2.255,2.2-4.458,3.331-6.61s2.306-4.3,3.484-6.456S60.427,49.1,61.555,47a.871.871,0,0,1,.307-.512.977.977,0,0,1,.666-.1H73.34a.472.472,0,0,1,.564.359c.051.051-.051.256-.154.359Z" transform="translate(-26.997 -41.867)" fill="#ff61f6"/>
          <path id="Path_83" data-name="Path 83" d="M122.192,98.9a25.475,25.475,0,0,1-11.017-2.306,17.865,17.865,0,0,1-7.738-6.969A22.172,22.172,0,0,1,100.62,77.94a21.045,21.045,0,0,1,2.818-10.812,21.279,21.279,0,0,1,8.147-7.943,26.211,26.211,0,0,1,12.964-2.972,9.15,9.15,0,0,1,1.076.051c.461.051.974.051,1.589.1V40.175c0-.359.154-.564.512-.564h10.4a.46.46,0,0,1,.512.359V88.855c0,.922.051,1.947.1,3.075.1,1.076.154,2.1.2,2.972a.832.832,0,0,1-.512.82,39.134,39.134,0,0,1-8.352,2.46A45.2,45.2,0,0,1,122.192,98.9Zm5.022-10.248V66.1a13.106,13.106,0,0,0-1.384-.256c-.564-.051-1.127-.1-1.691-.1a12.632,12.632,0,0,0-5.79,1.332,11.487,11.487,0,0,0-4.356,3.792,11.359,11.359,0,0,0-1.691,6.508,14.279,14.279,0,0,0,.871,5.278,10.015,10.015,0,0,0,2.306,3.638,8.853,8.853,0,0,0,3.484,2.05,13.413,13.413,0,0,0,4.253.666c.769,0,1.486-.051,2.152-.1A4.482,4.482,0,0,0,127.214,88.65Z" transform="translate(-51.766 -39.603)" fill="#ff61f6"/>
        </g>
      </g>
    </g>
  </g>
</svg>
