<svg xmlns="http://www.w3.org/2000/svg" xmlns:xlink="http://www.w3.org/1999/xlink" width="122.981" height="122.76" viewBox="0 0 122.981 122.76">
  <defs>
    <clipPath id="clip-path">
      <rect id="Rectangle_202" data-name="Rectangle 202" width="122.981" height="122.76" transform="translate(0 0)" fill="#fff"/>
    </clipPath>
  </defs>
  <g id="afterEffects" clip-path="url(#clip-path)">
    <g id="vlpa" transform="translate(0 1.427)">
      <g id="vlpb">
        <g id="vlpc">
          <g id="vlpd">
            <path id="Path_84" data-name="Path 84" d="M21.778,0H101.2a21.76,21.76,0,0,1,21.778,21.778V98.129A21.76,21.76,0,0,1,101.2,119.906H21.778A21.76,21.76,0,0,1,0,98.129V21.778A21.76,21.76,0,0,1,21.778,0Z" fill="#00005b"/>
          </g>
        </g>
      </g>
      <g id="vlpe" transform="translate(15.214 30.848)">
        <g id="vlpf">
          <path id="Path_85" data-name="Path 85" d="M57.111,87.379H38.049L34.155,99.472a.9.9,0,0,1-.974.717H23.547c-.564,0-.717-.307-.564-.922l16.5-47.3c.154-.512.307-.974.512-1.589a17.9,17.9,0,0,0,.307-3.331.508.508,0,0,1,.41-.564H53.985c.359,0,.615.154.666.41l18.7,52.267c.154.564,0,.82-.512.82H62.133a.774.774,0,0,1-.82-.564l-4.2-12.3Zm-16.09-10.2H54.036c-.307-1.076-.717-2.357-1.179-3.689-.461-1.384-.922-2.87-1.384-4.407-.512-1.589-.974-3.126-1.486-4.714S49.015,61.3,48.6,59.811c-.41-1.435-.769-2.767-1.127-4h-.1a62.917,62.917,0,0,1-1.742,6.61c-.769,2.46-1.537,5.022-2.357,7.584-.666,2.613-1.486,5.022-2.255,7.174Z" transform="translate(-22.928 -46.488)" fill="#99f"/>
          <path id="Path_86" data-name="Path 86" d="M130.3,89.027H114.055a11.292,11.292,0,0,0,1.589,4.561,8.125,8.125,0,0,0,3.741,3.075,15.938,15.938,0,0,0,6.559,1.281,30.823,30.823,0,0,0,5.329-.564,19.243,19.243,0,0,0,4.561-1.179c.256-.2.41-.1.41.41v7.84a2.571,2.571,0,0,1-.1.615,1.2,1.2,0,0,1-.359.359,21.922,21.922,0,0,1-5.124,1.537,34.616,34.616,0,0,1-7.276.615,24.283,24.283,0,0,1-9.838-1.793,17.253,17.253,0,0,1-6.456-4.868A18.8,18.8,0,0,1,103.55,94.2a26.547,26.547,0,0,1,.2-15.629,20.912,20.912,0,0,1,3.843-7.02,18.572,18.572,0,0,1,6.2-4.868,19.352,19.352,0,0,1,8.557-1.589,18.511,18.511,0,0,1,7.943,1.589,14.113,14.113,0,0,1,5.38,4.1,18.759,18.759,0,0,1,3.075,5.842,20.156,20.156,0,0,1,.974,6.252c0,1.23-.051,2.306-.1,3.279-.1.974-.154,1.691-.2,2.152a.765.765,0,0,1-.717.666c-.307,0-.871.051-1.691.1a24.253,24.253,0,0,1-2.972.154c-1.179,0-2.408-.2-3.741-.2Zm-16.244-7.481h10.812c1.332,0,2.306,0,2.921-.051a2.506,2.506,0,0,0,1.179-.41v-.512a5.88,5.88,0,0,0-.307-1.9A6.782,6.782,0,0,0,122,73.961a7.215,7.215,0,0,0-6.815,3.894A10.621,10.621,0,0,0,114.055,81.545Z" transform="translate(-49.69 -52.747)" fill="#99f"/>
        </g>
      </g>
    </g>
  </g>
</svg>
