<svg xmlns="http://www.w3.org/2000/svg" width="59" height="59" viewBox="0 0 59 59">
  <path id="email" d="M29.5,59A29.508,29.508,0,0,1,18.017,2.318,29.508,29.508,0,0,1,40.983,56.682,29.314,29.314,0,0,1,29.5,59ZM19.595,24.244a.094.094,0,0,0-.094.1V34.884a1.54,1.54,0,0,0,1.538,1.539H37.962A1.54,1.54,0,0,0,39.5,34.884V24.34a.1.1,0,0,0-.163-.067l-5.173,5.269a.093.093,0,0,0,0,.135l3.62,3.856a.625.625,0,0,1-.442,1.067.63.63,0,0,1-.443-.183l-3.605-3.841a.1.1,0,0,0-.139,0l-.88.894a3.875,3.875,0,0,1-2.759,1.164H29.5a3.971,3.971,0,0,1-2.8-1.2l-.846-.86a.1.1,0,0,0-.07-.029.1.1,0,0,0-.069.029l-3.606,3.841a.626.626,0,0,1-.885-.885l3.621-3.856a.1.1,0,0,0,0-.135l-5.178-5.269A.1.1,0,0,0,19.595,24.244Zm1.439-1.667a1.493,1.493,0,0,0-.952.337l7.544,7.678a2.63,2.63,0,0,0,3.755,0l7.543-7.678a1.511,1.511,0,0,0-.951-.337Z" fill="#fff"/>
</svg>
