<svg xmlns="http://www.w3.org/2000/svg" width="59.001" height="59.001" viewBox="0 0 59.001 59.001">
  <path id="menu" d="M-9592.5,3971a29.315,29.315,0,0,1-11.481-2.318,29.4,29.4,0,0,1-9.377-6.322,29.422,29.422,0,0,1-6.322-9.376A29.325,29.325,0,0,1-9622,3941.5a29.326,29.326,0,0,1,2.318-11.483,29.424,29.424,0,0,1,6.322-9.377,29.4,29.4,0,0,1,9.377-6.323A29.311,29.311,0,0,1-9592.5,3912a29.313,29.313,0,0,1,11.482,2.318,29.409,29.409,0,0,1,9.379,6.323,29.424,29.424,0,0,1,6.322,9.377A29.326,29.326,0,0,1-9563,3941.5a29.324,29.324,0,0,1-2.318,11.483,29.409,29.409,0,0,1-6.322,9.376,29.4,29.4,0,0,1-9.379,6.322A29.317,29.317,0,0,1-9592.5,3971Zm-12.373-23.5a1.127,1.127,0,0,0-1.126,1.125,1.127,1.127,0,0,0,1.126,1.125h24.749a1.127,1.127,0,0,0,1.125-1.125,1.127,1.127,0,0,0-1.125-1.125Zm0-6.75a1.127,1.127,0,0,0-1.126,1.125,1.127,1.127,0,0,0,1.126,1.125h24.749a1.127,1.127,0,0,0,1.125-1.125,1.127,1.127,0,0,0-1.125-1.125Zm0-6.749a1.127,1.127,0,0,0-1.126,1.125,1.127,1.127,0,0,0,1.126,1.125h24.749a1.127,1.127,0,0,0,1.125-1.125,1.127,1.127,0,0,0-1.125-1.125Z" transform="translate(9622 -3911.999)" fill="#fff"/>
</svg>
