<?xml version="1.0" encoding="UTF-8"?>
<svg id="uuid-b4cf24c2-11c6-478a-b9be-63500e968d68" data-name="1" xmlns="http://www.w3.org/2000/svg" viewBox="0 0 100 100">
  <defs>
    <style>
      .uuid-d0a6c7e2-92c6-4cd8-9625-db04a237b51d, .uuid-4fd7fb58-d97a-4675-96a8-d1de7820bab1 {
        stroke-width: 0px;
      }

      .uuid-4fd7fb58-d97a-4675-96a8-d1de7820bab1 {
        fill: #fff;
      }
    </style>
  </defs>
  <rect class="uuid-4fd7fb58-d97a-4675-96a8-d1de7820bab1" width="100" height="100"/>
  <g id="uuid-ccfd865a-218a-48f8-a195-b597d2491e77" data-name="461, Energy, Gear, Industry, Oil">
    <g>
      <path class="uuid-d0a6c7e2-92c6-4cd8-9625-db04a237b51d" d="M53.6,43.3c-1.1-1-2.2-2-3.1-3.3-.5-.7-1.5-.7-2,0-.9,1.3-2,2.3-3.1,3.3-2.2,2-4.4,4.1-4.4,7.7,0,4.7,3.8,8.5,8.5,8.5s8.5-3.8,8.5-8.5c0-3.6-2.3-5.7-4.4-7.7ZM49.5,57c-3.3,0-6-2.7-6-6,0-3.5,3.1-5,6-8.2,2.8,3.2,6,4.7,6,8.2,0,3.3-2.7,6-6,6Z"/>
      <path class="uuid-d0a6c7e2-92c6-4cd8-9625-db04a237b51d" d="M51,51.7c0,.9-.7,1.5-1.5,1.5-.7,0-1.3.6-1.3,1.3s.6,1.3,1.3,1.3c2.2,0,4-1.8,4-4,0-.7-.6-1.3-1.3-1.3-.6,0-1.2.5-1.2,1.2Z"/>
      <path class="uuid-d0a6c7e2-92c6-4cd8-9625-db04a237b51d" d="M77.9,45.1l-7-.4c-.1-.6-.3-1.3-.5-1.9l5.8-3.8c.6-.4.7-1.1.4-1.7l-3-5.3c-.3-.6-1.1-.8-1.6-.5l-6.2,3.2c-.4-.5-.9-.9-1.4-1.4l3.2-6.2c.3-.6.1-1.3-.5-1.6l-5.4-3.1c-.6-.3-1.3-.2-1.7.4l-3.8,5.8c-.6-.2-1.3-.4-1.9-.5l-.4-7c0-.7-.6-1.2-1.2-1.2h-6.3c-.7,0-1.2.5-1.2,1.2l-.4,7c-.6.1-1.3.3-1.9.5l-3.8-5.8c-.4-.6-1.1-.7-1.7-.4l-5.4,3c-.6.3-.8,1.1-.5,1.6l3.2,6.2c-.5.4-.9.9-1.4,1.4l-6.2-3.2c-.6-.3-1.3-.1-1.6.5l-3.1,5.4c-.3.6-.2,1.3.4,1.7l5.8,3.8c-.2.6-.4,1.3-.5,1.9l-7,.4c-.7,0-1.2.6-1.2,1.2v6.3c0,.7.5,1.2,1.2,1.2l7,.4c.1.6.3,1.3.5,1.9l-5.8,3.8c-.6.4-.7,1.1-.4,1.7l3.1,5.4c.3.6,1.1.8,1.6.5l6.2-3.2c.4.5.9.9,1.4,1.4l-3.2,6.2c-.3.6-.1,1.3.5,1.6l5.4,3.1c.6.3,1.3.2,1.7-.4l3.8-5.8c.6.2,1.3.4,1.9.5l.4,7c0,.7.6,1.2,1.2,1.2h6.3c.7,0,1.2-.5,1.2-1.2l.4-7c.6-.1,1.3-.3,1.9-.5l3.8,5.8c.4.6,1.1.7,1.7.4l5.4-3.1c.6-.3.8-1.1.5-1.6l-3.2-6.2c.5-.4.9-.9,1.4-1.4l6.2,3.2c.6.3,1.3.1,1.6-.5l3.1-5.4c.3-.6.2-1.3-.4-1.7l-5.8-3.8c.2-.6.4-1.3.5-1.9l7-.4c.7,0,1.2-.6,1.2-1.2v-6.3c-.1-.6-.6-1.1-1.3-1.2ZM76.6,51.4l-6.7.4c-.6,0-1.1.5-1.2,1-.2,1.1-.5,2.3-.9,3.4-.2.5,0,1.2.5,1.5l5.7,3.7-2,3.3-6-3.1c-.5-.3-1.2-.1-1.5.3-.8.9-1.6,1.7-2.5,2.5-.4.4-.6,1-.3,1.5l3.1,6-3.4,2.1-3.7-5.7c-.3-.5-.9-.7-1.5-.5-1.1.4-2.2.7-3.4.9-.6.1-1,.6-1,1.2l-.4,6.7h-3.9l-.4-6.7c0-.6-.5-1.1-1-1.2-1.1-.2-2.3-.5-3.4-.9-.5-.2-1.2,0-1.5.5l-3.6,5.7-3.3-2,3.1-6c.3-.5.1-1.2-.3-1.5-.9-.8-1.7-1.6-2.5-2.5-.4-.5-1-.6-1.5-.3l-6,3.1-2.1-3.4,5.7-3.7c.5-.3.7-.9.5-1.5-.4-1.1-.7-2.2-.9-3.4-.1-.6-.6-1-1.2-1l-6.7-.4v-3.9l6.7-.4c.6,0,1.1-.5,1.2-1,.2-1.1.5-2.3.9-3.4.2-.5,0-1.2-.5-1.5l-5.7-3.6,1.9-3.4,6,3.1c.5.3,1.2.1,1.5-.3.7-.9,1.6-1.7,2.5-2.5.5-.4.6-1,.3-1.5l-3.1-6,3.4-1.9,3.7,5.7c.3.5.9.7,1.5.5,1.1-.4,2.2-.7,3.4-.9.6-.1,1-.6,1-1.2l.4-6.7h3.9l.4,6.7c0,.6.5,1.1,1,1.2,1.1.2,2.3.5,3.4.9.5.2,1.2,0,1.5-.5l3.7-5.7,3.4,1.9-3.1,6c-.3.5-.1,1.2.3,1.5.9.7,1.7,1.6,2.5,2.5.4.4,1,.6,1.5.3l6-3.1,1.9,3.4-5.7,3.7c-.5.3-.7.9-.5,1.5.4,1.1.7,2.2.9,3.4.1.6.6,1,1.2,1l6.7.4.1,3.8h0Z"/>
      <path class="uuid-d0a6c7e2-92c6-4cd8-9625-db04a237b51d" d="M49.5,33.9c-8.6,0-15.6,7-15.6,15.6s7,15.6,15.6,15.6,15.6-7,15.6-15.6-7-15.6-15.6-15.6ZM49.5,62.6c-7.2,0-13.1-5.9-13.1-13.1s5.9-13.1,13.1-13.1,13.1,5.9,13.1,13.1-5.9,13.1-13.1,13.1Z"/>
      <path class="uuid-d0a6c7e2-92c6-4cd8-9625-db04a237b51d" d="M73.3,25.8c.7,0,1.3-.6,1.3-1.3s-.6-1.3-1.3-1.3-1.3.6-1.3,1.3.6,1.3,1.3,1.3Z"/>
      <path class="uuid-d0a6c7e2-92c6-4cd8-9625-db04a237b51d" d="M28.3,29.5c.7,0,1.3-.6,1.3-1.3s-.6-1.3-1.3-1.3-1.3.6-1.3,1.3.6,1.3,1.3,1.3Z"/>
      <path class="uuid-d0a6c7e2-92c6-4cd8-9625-db04a237b51d" d="M69.5,68.2c-.7,0-1.3.6-1.3,1.3s.6,1.3,1.3,1.3,1.2-.6,1.2-1.3-.5-1.3-1.2-1.3Z"/>
      <path class="uuid-d0a6c7e2-92c6-4cd8-9625-db04a237b51d" d="M32,75.8c-.7,0-1.3.6-1.3,1.3s.6,1.3,1.3,1.3,1.3-.6,1.3-1.3c0-.8-.6-1.3-1.3-1.3Z"/>
      <path class="uuid-d0a6c7e2-92c6-4cd8-9625-db04a237b51d" d="M24.5,69.5c-2.1,0-3.7,1.7-3.7,3.8s1.7,3.8,3.7,3.8c2.1,0,3.8-1.7,3.8-3.8s-1.7-3.8-3.8-3.8ZM24.5,74.5c-.7,0-1.2-.6-1.2-1.3s.6-1.3,1.2-1.3c.7,0,1.3.6,1.3,1.3s-.6,1.3-1.3,1.3Z"/>
      <path class="uuid-d0a6c7e2-92c6-4cd8-9625-db04a237b51d" d="M73.9,70.7c-1.7,0-3.1,1.4-3.1,3.1s1.4,3.1,3.1,3.1,3.1-1.4,3.1-3.1-1.4-3.1-3.1-3.1ZM73.9,74.5c-.3,0-.6-.3-.6-.6s.3-.6.6-.6.6.3.6.6-.3.6-.6.6Z"/>
      <path class="uuid-d0a6c7e2-92c6-4cd8-9625-db04a237b51d" d="M23.9,27c1.7,0,3.1-1.4,3.1-3.1s-1.4-3.1-3.1-3.1-3.1,1.4-3.1,3.1,1.4,3.1,3.1,3.1ZM23.9,23.3c.3,0,.6.3.6.6s-.3.6-.6.6-.6-.3-.6-.6c0-.4.2-.6.6-.6Z"/>
    </g>
  </g>
</svg>