<?xml version="1.0" encoding="UTF-8"?>
<svg id="uuid-50f4f925-9905-42aa-8ccc-fdb86ffce4f8" data-name="Layer 2" xmlns="http://www.w3.org/2000/svg" xmlns:xlink="http://www.w3.org/1999/xlink" viewBox="0 0 3384.03 1080">
  <defs>
    <style>
      .uuid-ec398f10-f1ff-47cb-84d5-1929927e66d8 {
        stroke-width: 0px;
      }

      .uuid-ec398f10-f1ff-47cb-84d5-1929927e66d8, .uuid-9bdefe94-723a-436f-9da6-eb8a4dc6c920, .uuid-5bf62009-6559-4195-8af8-72590cee226e {
        fill: none;
      }

      .uuid-94762e4a-35d1-4a4e-a747-a8ce4b28b874 {
        clip-path: url(#uuid-fc70fd8b-2754-44fd-9607-fe2dfc5c23a7);
      }

      .uuid-9bdefe94-723a-436f-9da6-eb8a4dc6c920 {
        stroke: url(#uuid-3dda7ed0-4641-4a9d-b54d-458324b0909a);
        stroke-width: 4px;
      }

      .uuid-9bdefe94-723a-436f-9da6-eb8a4dc6c920, .uuid-5bf62009-6559-4195-8af8-72590cee226e {
        stroke-miterlimit: 10;
      }

      .uuid-5bf62009-6559-4195-8af8-72590cee226e {
        stroke: url(#uuid-ae54a976-5df1-4ada-8a11-ee79a586dbbf);
      }
    </style>
    <clipPath id="uuid-fc70fd8b-2754-44fd-9607-fe2dfc5c23a7">
      <rect class="uuid-ec398f10-f1ff-47cb-84d5-1929927e66d8" x="279.6" width="3000" height="1080"/>
    </clipPath>
    <linearGradient id="uuid-ae54a976-5df1-4ada-8a11-ee79a586dbbf" x1="383.62" y1="-190.48" x2="3214.12" y2="1185.47" gradientUnits="userSpaceOnUse">
      <stop offset="0" stop-color="#c48cf8"/>
      <stop offset="1" stop-color="#8cf893"/>
    </linearGradient>
    <linearGradient id="uuid-3dda7ed0-4641-4a9d-b54d-458324b0909a" x1="382.27" y1="-191.13" x2="3215.47" y2="1186.12" gradientUnits="userSpaceOnUse">
      <stop offset="0" stop-color="#c48cf8"/>
      <stop offset=".17" stop-color="#c190f3"/>
      <stop offset=".37" stop-color="#ba9ee6"/>
      <stop offset=".59" stop-color="#aeb5d1"/>
      <stop offset=".81" stop-color="#9dd5b3"/>
      <stop offset="1" stop-color="#8cf893"/>
    </linearGradient>
  </defs>
  <g id="uuid-9d621786-2bab-4365-8a1f-76cbb5b9da0e" data-name="uuid-ee202425-5ce6-4287-8641-6d1d6080a993">
    <g class="uuid-94762e4a-35d1-4a4e-a747-a8ce4b28b874">
      <path class="uuid-5bf62009-6559-4195-8af8-72590cee226e" d="M243.6,364s570.7-344,914.7,0c344,344,741.3,128,741.3,128,161.3-87.7,378.9-146.5,561.6-129.9,55.1,5,110.2,18.5,158.6,46.1,62.6,35.7,103.8,103.4,179.3,115.8,64.3,10.6,128.1-27.3,169.9-73.2,47.5-52.1,67.2-119.7,109.2-174.9,0,0,296-389.3,296,0v411c0,28.4,2.5,56.7,3.5,85.1,1,27.1,18.3,89.2-24.1,91.4-11.2.6-22.1-3.4-32.6-7.3-128.83-47.85-265.19-72.69-396.14-113.79-215.08-67.51-452.54-104.74-676.06-49.41-90.17,22.32-173.31,61.55-258.98,95.76-86.71,34.63-179.5,52.17-272.33,59.44-115.59,9.05-231.78,2.53-347.53-4.21-56.65-3.3-113.98-7.04-169.03-21.73-58.21-15.53-105.11-47.76-154.63-80.67-55.5-36.88-104.73-50.86-170.5-44.28-79.5,7.9-154.8,36.1-232.6,52.1-152.4,31.3-318.4,81.7-474.8,65.2-70.3-7.5-163.1-40.4-166.3-124.2,0-1.1-.1-2.3-.1-3.4,0-280,241.6-322.9,241.6-322.9Z"/>
      <path class="uuid-9bdefe94-723a-436f-9da6-eb8a4dc6c920" d="M243.6,364s570.7-344,914.7,0c344,344,741.3,128,741.3,128,161.3-87.7,378.9-146.5,561.6-129.9,55.1,5,110.2,18.5,158.6,46.1,62.6,35.7,103.8,103.4,179.3,115.8,64.3,10.6,128.1-27.3,169.9-73.2,47.5-52.1,67.2-119.7,109.2-174.9,0,0,296-389.3,296,0v411c0,28.4,2.5,56.7,3.5,85.1,1,27.1,18.3,89.2-24.1,91.4-11.2.6-22.1-3.4-32.6-7.3-128.83-47.85-265.19-72.69-396.14-113.79-215.08-67.51-452.54-104.74-676.06-49.41-90.17,22.32-173.31,61.55-258.98,95.76-86.71,34.63-179.5,52.17-272.33,59.44-115.59,9.05-231.78,2.53-347.53-4.21-56.65-3.3-113.98-7.04-169.03-21.73-58.21-15.53-105.11-47.76-154.63-80.67-55.5-36.88-104.73-50.86-170.5-44.28-79.5,7.9-154.8,36.1-232.6,52.1-152.4,31.3-318.4,81.7-474.8,65.2-70.3-7.5-163.1-40.4-166.3-124.2,0-1.1-.1-2.3-.1-3.4,0-280,241.6-322.9,241.6-322.9Z"/>
    </g>
  </g>
</svg>