<?xml version="1.0" encoding="UTF-8"?>
<svg id="uuid-d362b04c-0e38-4fc3-af05-0a34826d0333" data-name="Layer 2" xmlns="http://www.w3.org/2000/svg" xmlns:xlink="http://www.w3.org/1999/xlink" viewBox="0 0 3000 1080">
  <defs>
    <style>
      .uuid-0327b0fd-1ee8-4a80-a61f-1c63e2bb9b1c {
        fill: none;
      }

      .uuid-0327b0fd-1ee8-4a80-a61f-1c63e2bb9b1c, .uuid-93d465b1-52cb-4533-b5fd-b0d17d949d05 {
        stroke-width: 0px;
      }

      .uuid-a895dfb7-4289-4cf1-be9f-c15bd738c8f8 {
        clip-path: url(#uuid-f0656020-e469-42e8-98e9-9a60d386766c);
      }

      .uuid-93d465b1-52cb-4533-b5fd-b0d17d949d05 {
        fill: url(#uuid-8eae9352-4ff8-47c0-ad74-f71b9a26dfe7);
      }
    </style>
    <clipPath id="uuid-f0656020-e469-42e8-98e9-9a60d386766c">
      <rect class="uuid-0327b0fd-1ee8-4a80-a61f-1c63e2bb9b1c" width="3000" height="1080"/>
    </clipPath>
    <linearGradient id="uuid-8eae9352-4ff8-47c0-ad74-f71b9a26dfe7" x1="131.31" y1="1481.21" x2="2960.91" y2="105.71" gradientTransform="translate(0 1304) scale(1 -1)" gradientUnits="userSpaceOnUse">
      <stop offset="0" stop-color="#c48cf8"/>
      <stop offset="1" stop-color="#8cf893"/>
    </linearGradient>
  </defs>
  <g id="uuid-0dae14c0-ce20-4b35-941e-255b6d48987f" data-name="uuid-ee202425-5ce6-4287-8641-6d1d6080a993">
    <g class="uuid-a895dfb7-4289-4cf1-be9f-c15bd738c8f8">
      <path class="uuid-93d465b1-52cb-4533-b5fd-b0d17d949d05" d="M-36,364s570.7-344,914.7,0c344,344,741.3,128,741.3,128,161.3-87.7,378.9-146.5,561.6-129.9,55.1,5,110.2,18.5,158.6,46.1,62.6,35.7,103.8,103.4,179.3,115.8,64.3,10.6,128.1-27.3,169.9-73.2,47.5-52.1,67.2-119.7,109.2-174.9,0,0,296-389.3,296,0v411c0,28.4,2.5,56.7,3.5,85.1,1,27.1,18.3,89.2-24.1,91.4-11.2.6-22.1-3.4-32.6-7.3-128.83-47.85-265.19-72.69-396.14-113.79-215.08-67.51-452.54-104.74-676.06-49.41-90.17,22.32-173.31,61.55-258.98,95.76-86.71,34.63-179.5,52.17-272.33,59.44-115.59,9.05-231.78,2.53-347.53-4.21-56.65-3.3-113.98-7.04-169.03-21.73-58.21-15.53-105.11-47.76-154.63-80.67-55.5-36.88-104.73-50.86-170.5-44.28-79.5,7.9-154.8,36.1-232.6,52.1-152.4,31.3-318.4,81.7-474.8,65.2-70.3-7.5-163.1-40.4-166.3-124.2,0-1.1-.1-2.3-.1-3.4,0-280,241.6-322.9,241.6-322.9Z"/>
      <path class="uuid-93d465b1-52cb-4533-b5fd-b0d17d949d05" d="M-36,364s570.7-344,914.7,0c344,344,741.3,128,741.3,128,161.3-87.7,378.9-146.5,561.6-129.9,55.1,5,110.2,18.5,158.6,46.1,62.6,35.7,103.8,103.4,179.3,115.8,64.3,10.6,128.1-27.3,169.9-73.2,47.5-52.1,67.2-119.7,109.2-174.9,0,0,296-389.3,296,0v411c0,28.4,2.5,56.7,3.5,85.1,1,27.1,18.3,89.2-24.1,91.4-11.2.6-22.1-3.4-32.6-7.3-128.83-47.85-265.19-72.69-396.14-113.79-215.08-67.51-452.54-104.74-676.06-49.41-90.17,22.32-173.31,61.55-258.98,95.76-86.71,34.63-179.5,52.17-272.33,59.44-115.59,9.05-231.78,2.53-347.53-4.21-56.65-3.3-113.98-7.04-169.03-21.73-58.21-15.53-105.11-47.76-154.63-80.67-55.5-36.88-104.73-50.86-170.5-44.28-79.5,7.9-154.8,36.1-232.6,52.1-152.4,31.3-318.4,81.7-474.8,65.2-70.3-7.5-163.1-40.4-166.3-124.2,0-1.1-.1-2.3-.1-3.4,0-280,241.6-322.9,241.6-322.9Z"/>
    </g>
  </g>
</svg>