<?xml version="1.0" encoding="UTF-8"?>
<svg id="uuid-ee202425-5ce6-4287-8641-6d1d6080a993" data-name="Layer 1" xmlns="http://www.w3.org/2000/svg" xmlns:xlink="http://www.w3.org/1999/xlink" viewBox="0 0 3000 1080">
  <defs>
    <style>
      .uuid-8345ea2d-16e8-491f-82e7-c58429a55a7c {
        fill: url(#uuid-41a520c5-83ec-4908-a851-91fda43c0a7d);
        stroke: #fff;
        stroke-miterlimit: 10;
      }
    </style>
    <linearGradient id="uuid-41a520c5-83ec-4908-a851-91fda43c0a7d" x1="414.98" y1="1340.19" x2="2553.23" y2="-157.03" gradientUnits="userSpaceOnUse">
      <stop offset="0" stop-color="#c48cf8"/>
      <stop offset="1" stop-color="#8cf893"/>
    </linearGradient>
  </defs>
  <path class="uuid-8345ea2d-16e8-491f-82e7-c58429a55a7c" d="M-25.5,175.5c71.53-7.95,143.27-14.24,215.01-19.85,132.09-10.33,265.01-18.78,397.57-15.91,42.86.93,86.08,2.77,128.47,9.59,14.99,2.41,30.15,5.28,44.54,10.26,32.1,11.12,51.23,37.59,71.64,63.12s41.44,54.1,62.09,81.2c46.33,60.79,101.27,137.53,175.91,165.11,59.57,22.01,102.25-23.5,151.98-47.82,67.52-33.02,143.15-49.46,218.08-51.65,68.64-2.01,155.18,4.24,214.03,43.38,24.07,16.01,22.12,50.62,43.91,69.32,19.52,16.76,47.29,16.48,71.56,16.68,76.42.63,151.54-15.37,226.46-28.4,34.81-6.06,70.54-12.82,105.67-15.05,36.85-2.34,74.33-7.51,108.35-22.59,36.97-16.38,64.18-45.91,92.96-73.36,44.58-42.53,87.9-90.3,144.36-117.28,65.15-31.12,131.53-17.39,186.41,27.75,54.94,45.19,96.88,103.07,135.57,162.17,34.14,52.15,60.29,108.3,107.08,151.18,11.87,10.88,25.2,20.96,40.81,24.93,19.98,5.07,41.46-.63,59.25-11.05,17.78-10.42,32.52-25.22,47.03-39.85,2.08,90.15,4.11,180.31,6.02,270.46,1.08,50.84,3.24,101.8,3.24,152.66,0-4.8-33.34-22.82-37.13-25.39-32.53-22.12-65.18-44.05-97.94-65.81-76.6-50.87-152.3-103.17-230.57-151.48-41.33-25.52-83.53-49.62-126.46-72.35-22.48-11.91-45.17-23.43-68.03-34.59-17.54-8.56-42.49-25.74-62.97-19.17-5.03,1.61-8.78,5.73-12.29,9.68-25.47,28.68-47.01,47.91-82.66,63.42-28.64,12.45-58.11,22.99-87.79,32.69-69.31,22.65-140.27,40.68-211.81,54.74-38.81,7.63-77.59,15.18-116.9,19.87-36.52,4.36-100.18,24.47-130.63-5.93-8.35-8.34-11.61-20.33-17.03-30.82-27.89-53.99-106.58-52.99-158.26-62.83-68.9-13.11-138.93-20.63-208.9-24.9-68.98-4.2-138.53-5.41-207.48.08-31.12,2.48-62.85,3.1-93.15,11.41-32.27,8.85-48.41,28.84-74.03,48.27-41.14,31.2-101.1,28.85-150.09,33.54-58.28,5.58-116.89,7.7-175.41,8.26-137.45,1.31-275.41-5.95-411.82-22.98-111.1-13.87-226.17-28.66-327.72-78.86-31.2-15.43-73.93-40.92-73.93-80.84,0-197,105-411,105-411Z"/>
</svg>