<svg xmlns="http://www.w3.org/2000/svg" xmlns:xlink="http://www.w3.org/1999/xlink" width="1682" height="46" viewBox="0 0 1682 46">
  <defs>
    <clipPath id="clip-path">
      <rect id="Rectangle_220" data-name="Rectangle 220" width="1682" height="46" transform="translate(-1 6768)" fill="#fff" stroke="#707070" stroke-width="1"/>
    </clipPath>
  </defs>
  <g id="footer-top" transform="translate(1 -6768)" clip-path="url(#clip-path)">
    <g id="footer">
      <g id="Subtraction_3" data-name="Subtraction 3" transform="translate(14005 2777)" fill="#2d2833">
        <path d="M -12323.9990234375 4495.50146484375 L -14006 4495.50146484375 L -14006.5 4495.50146484375 L -14006.5 4495.00146484375 L -14006.5 3991.419921875 L -14005.5 3991.4150390625 C -14005.443359375 3997.1015625 -14004.2783203125 4002.613037109375 -14002.0390625 4007.796142578125 C -13999.8740234375 4012.809326171875 -13996.798828125 4017.310302734375 -13992.9013671875 4021.173583984375 C -13989 4025.03955078125 -13984.4697265625 4028.07421875 -13979.435546875 4030.193115234375 C -13974.22265625 4032.387451171875 -13968.693359375 4033.500244140625 -13963 4033.500244140625 L -12366.9990234375 4033.500244140625 C -12343.564453125 4033.500244140625 -12324.4990234375 4014.434814453125 -12324.4990234375 3991.00048828125 L -12323.4990234375 3991.00048828125 L -12323.4990234375 4495.00146484375 L -12323.9990234375 4495.001953125 L -12323.9990234375 4495.50146484375 Z" stroke="none"/>
        <path d="M -12323.9990234375 4495.00244140625 L -12323.9990234375 3991.00048828125 C -12323.9990234375 4014.71044921875 -12343.2890625 4034.000244140625 -12366.9990234375 4034.000244140625 L -13963 4034.000244140625 C -13968.7607421875 4034.000244140625 -13974.35546875 4032.874267578125 -13979.6298828125 4030.654052734375 C -13984.7236328125 4028.510009765625 -13989.306640625 4025.43994140625 -13993.2529296875 4021.52880859375 C -13997.197265625 4017.61962890625 -14000.3076171875 4013.06591796875 -14002.498046875 4007.994384765625 C -14004.765625 4002.74609375 -14005.9423828125 3997.169921875 -14006 3991.419921875 L -14006 4495.00146484375 L -12323.9990234375 4495.00146484375 L -12323.9990234375 4495.00244140625 M -12323.9990234375 4496.00146484375 L -14007 4496.00146484375 L -14007 3991.419921875 L -14005 3991.409912109375 C -14004.943359375 3997.029541015625 -14003.79296875 4002.47607421875 -14001.580078125 4007.59765625 C -13999.4404296875 4012.552001953125 -13996.4013671875 4017.000244140625 -13992.548828125 4020.818603515625 C -13988.6943359375 4024.639404296875 -13984.216796875 4027.638427734375 -13979.2421875 4029.732177734375 C -13974.0908203125 4031.900634765625 -13968.6259765625 4033.000244140625 -13963 4033.000244140625 L -12366.9990234375 4033.000244140625 C -12343.83984375 4033.000244140625 -12324.9990234375 4014.1591796875 -12324.9990234375 3991.00048828125 L -12322.9990234375 3991.00048828125 L -12322.9990234375 4495.00146484375 L -12323.9990234375 4495.001953125 L -12323.9990234375 4496.00146484375 Z" stroke="none" fill="#c48cf8"/>
      </g>
      <g id="border-radius-button" transform="translate(-69 48)">
        <circle id="Ellipse_3" data-name="Ellipse 3" cx="6" cy="6" r="6" transform="translate(102 6722)" fill="#c48cf8"/>
        <circle id="Ellipse_4" data-name="Ellipse 4" cx="5" cy="5" r="5" transform="translate(103 6723)" fill="#fff"/>
        <circle id="Ellipse_5" data-name="Ellipse 5" cx="3" cy="3" r="3" transform="translate(105 6725)" fill="#c48cf8"/>
      </g>
      <g id="Rounding_button" transform="translate(1527 48)">
        <circle id="Ellipse_3-2" data-name="Ellipse 3" cx="6" cy="6" r="6" transform="translate(102 6722)" fill="#c48cf8"/>
        <circle id="Ellipse_4-2" data-name="Ellipse 4" cx="5" cy="5" r="5" transform="translate(103 6723)" fill="#fff"/>
        <circle id="Ellipse_5-2" data-name="Ellipse 5" cx="3" cy="3" r="3" transform="translate(105 6725)" fill="#c48cf8"/>
      </g>
    </g>
  </g>
</svg>
