<svg xmlns="http://www.w3.org/2000/svg" width="268.62" height="63.253" viewBox="0 0 268.62 63.253">
  <path id="Path_36" data-name="Path 36" d="M4.38,6.419V-42H23.609a17.327,17.327,0,0,1,7.92,1.764,13.285,13.285,0,0,1,5.464,4.98,14.476,14.476,0,0,1,1.971,7.712v.9A14.273,14.273,0,0,1,36.925-18.9a13.493,13.493,0,0,1-5.5,4.98,17.238,17.238,0,0,1-7.816,1.729H11.85V6.419Zm7.47-25.386h11a9.17,9.17,0,0,0,6.295-2.075,7.176,7.176,0,0,0,2.352-5.672v-.692a7.258,7.258,0,0,0-2.352-5.741,9.17,9.17,0,0,0-6.295-2.075h-11ZM46.3,6.419v-34.1h6.986v4.012H54.39a5.839,5.839,0,0,1,2.663-3.147,9.337,9.337,0,0,1,4.531-1h4.081v6.433H61.307a8.394,8.394,0,0,0-5.672,1.9q-2.213,1.9-2.213,5.845V6.419Zm41.5.968a19.115,19.115,0,0,1-9.1-2.11,15.5,15.5,0,0,1-6.26-6.052,18.317,18.317,0,0,1-2.283-9.338V-11.15a18.128,18.128,0,0,1,2.283-9.3,15.8,15.8,0,0,1,6.26-6.052,18.864,18.864,0,0,1,9.1-2.144,19.066,19.066,0,0,1,9.13,2.144,15.744,15.744,0,0,1,6.294,6.052,18.128,18.128,0,0,1,2.283,9.3v1.038a18.317,18.317,0,0,1-2.283,9.338A15.445,15.445,0,0,1,96.93,5.278,19.321,19.321,0,0,1,87.8,7.388Zm0-6.364a10.212,10.212,0,0,0,7.643-3.009q2.94-3.009,2.94-8.335v-.623q0-5.326-2.905-8.335A10.184,10.184,0,0,0,87.8-22.286a10.126,10.126,0,0,0-7.574,3.009q-2.94,3.009-2.94,8.335v.623q0,5.326,2.94,8.335A10.126,10.126,0,0,0,87.8,1.024Zm20.129,19.229-.069-6.156h4.7q2.006,0,1.937-2.075l.069-39.635,7.055-.069V13.405a6.877,6.877,0,0,1-1.8,4.98,6.681,6.681,0,0,1-5.049,1.868ZM118.1-32.316a4.875,4.875,0,0,1-3.493-1.349,4.6,4.6,0,0,1-1.418-3.493,4.6,4.6,0,0,1,1.418-3.493A4.875,4.875,0,0,1,118.1-42a4.844,4.844,0,0,1,3.528,1.349,4.663,4.663,0,0,1,1.383,3.493,4.663,4.663,0,0,1-1.383,3.493A4.844,4.844,0,0,1,118.1-32.316Zm29.743,39.7a18.177,18.177,0,0,1-9.061-2.179,15.4,15.4,0,0,1-6.052-6.156,18.915,18.915,0,0,1-2.179-9.234v-.83a19.314,19.314,0,0,1,2.144-9.3,15.234,15.234,0,0,1,5.983-6.156,17.7,17.7,0,0,1,8.888-2.179,16.657,16.657,0,0,1,8.612,2.179,15.21,15.21,0,0,1,5.776,6.052,18.909,18.909,0,0,1,2.075,9.061v2.7H137.81A9.728,9.728,0,0,0,140.818-1.5a10.123,10.123,0,0,0,7.159,2.663q4.012,0,6.052-1.8a12.712,12.712,0,0,0,3.147-4.15l5.879,3.043a20.562,20.562,0,0,1-2.8,4.081,14.694,14.694,0,0,1-4.807,3.6A17.349,17.349,0,0,1,147.839,7.388Zm-9.961-21.512h18.883A8.471,8.471,0,0,0,154-20.177a9.515,9.515,0,0,0-6.5-2.179,9.648,9.648,0,0,0-6.537,2.179A9.427,9.427,0,0,0,137.879-14.124ZM188.442,7.388a18.922,18.922,0,0,1-8.888-2.075,15.5,15.5,0,0,1-6.294-6.018,18.385,18.385,0,0,1-2.317-9.476v-.9a18.2,18.2,0,0,1,2.317-9.442,15.8,15.8,0,0,1,6.294-6.018,18.67,18.67,0,0,1,8.888-2.11,17.952,17.952,0,0,1,8.37,1.8,15.4,15.4,0,0,1,5.568,4.773,15.908,15.908,0,0,1,2.732,6.571L198.2-14.055a11.407,11.407,0,0,0-1.453-4.15,8.057,8.057,0,0,0-3.113-2.974,10.359,10.359,0,0,0-5.049-1.107,10.7,10.7,0,0,0-5.361,1.349,9.683,9.683,0,0,0-3.77,3.874,12.576,12.576,0,0,0-1.383,6.122v.623a12.779,12.779,0,0,0,1.383,6.156A9.4,9.4,0,0,0,183.22-.29a10.925,10.925,0,0,0,5.361,1.314q4.5,0,6.848-2.317A10.594,10.594,0,0,0,198.4-7.207l6.917,1.591a18.437,18.437,0,0,1-2.94,6.5,15.1,15.1,0,0,1-5.568,4.738A18.246,18.246,0,0,1,188.442,7.388Zm36.66-.968a6.614,6.614,0,0,1-4.946-1.868,6.8,6.8,0,0,1-1.833-4.98V-21.664h-9.407l.069-5.949,9.338-.069V-39.026l7.125.069-.069,11.344,10.237-.069.069,6.018H225.448v19.99Q225.379.471,227.385.4l7.055.069.069,5.949Zm32.856.968a18.824,18.824,0,0,1-10.791-2.905A12.5,12.5,0,0,1,241.911-4.3l6.64-1.591a10.35,10.35,0,0,0,1.868,4.5A7.123,7.123,0,0,0,253.7.955a12.761,12.761,0,0,0,4.254.692A8.87,8.87,0,0,0,263.181.332a4,4,0,0,0,1.833-3.389A3.244,3.244,0,0,0,263.285-6.1a17.229,17.229,0,0,0-5.119-1.591l-2.352-.415a30.529,30.529,0,0,1-6.295-1.8,11.019,11.019,0,0,1-4.5-3.251,8.261,8.261,0,0,1-1.66-5.326,8.793,8.793,0,0,1,3.6-7.5q3.6-2.663,9.546-2.663a16.076,16.076,0,0,1,9.442,2.594,11.8,11.8,0,0,1,4.807,7.021l-6.64,1.868a6.381,6.381,0,0,0-2.628-4.392,9.084,9.084,0,0,0-4.98-1.28,8.359,8.359,0,0,0-4.565,1.072,3.389,3.389,0,0,0-1.66,3.009,3.286,3.286,0,0,0,1.626,3.043,13.053,13.053,0,0,0,4.392,1.453l2.421.415a38.485,38.485,0,0,1,6.71,1.729,11.144,11.144,0,0,1,4.807,3.182A8.257,8.257,0,0,1,272-3.4a9.349,9.349,0,0,1-3.8,7.955Q264.391,7.388,257.958,7.388Z" transform="translate(-3.88 42.5)" fill="none" stroke="#c48cf8" stroke-width="1"/>
</svg>
