<?xml version="1.0" encoding="UTF-8"?>
<svg id="uuid-b2208981-087c-4a41-bb79-7edc8ec731e9" data-name="Layer 2" xmlns="http://www.w3.org/2000/svg" xmlns:xlink="http://www.w3.org/1999/xlink" viewBox="0 0 3000 1080">
  <defs>
    <style>
      .uuid-d3f471e8-a3ce-4947-8ddc-bb5b03765508 {
        stroke: url(#uuid-c0e9bba0-284d-4394-a649-baf80f457c3e);
      }

      .uuid-d3f471e8-a3ce-4947-8ddc-bb5b03765508, .uuid-51af91b1-fc04-4aad-bb6d-f9fc19b02e96, .uuid-493bf463-7f96-4797-a46a-3a723e4db591, .uuid-b7c316cf-0621-4738-a5fb-0cfc57b2b893, .uuid-c1e099e5-45cf-42ab-8c63-8e3ae1b06676, .uuid-aad379a3-3aca-481e-939e-21024ca5d0e8, .uuid-39b9eb81-f188-4b68-882b-1df4322a3d43, .uuid-6991fdd8-51c7-42a8-9934-a9bc8a76f6a0, .uuid-46ce2556-beb8-4381-851e-cd639f0403e2, .uuid-f07f572f-8709-4346-b6e1-eff6222c9c5a, .uuid-437416d5-1279-4ae6-98e7-3bc072f60c95, .uuid-9fa22b19-94f3-48e6-b038-266f26f2b78b, .uuid-dea90eb6-64b1-4d8f-b00b-583ebe941099 {
        fill: none;
      }

      .uuid-d3f471e8-a3ce-4947-8ddc-bb5b03765508, .uuid-51af91b1-fc04-4aad-bb6d-f9fc19b02e96, .uuid-493bf463-7f96-4797-a46a-3a723e4db591, .uuid-c1e099e5-45cf-42ab-8c63-8e3ae1b06676, .uuid-aad379a3-3aca-481e-939e-21024ca5d0e8, .uuid-39b9eb81-f188-4b68-882b-1df4322a3d43, .uuid-6991fdd8-51c7-42a8-9934-a9bc8a76f6a0, .uuid-46ce2556-beb8-4381-851e-cd639f0403e2, .uuid-f07f572f-8709-4346-b6e1-eff6222c9c5a, .uuid-437416d5-1279-4ae6-98e7-3bc072f60c95, .uuid-9fa22b19-94f3-48e6-b038-266f26f2b78b, .uuid-dea90eb6-64b1-4d8f-b00b-583ebe941099 {
        stroke-miterlimit: 10;
      }

      .uuid-d3f471e8-a3ce-4947-8ddc-bb5b03765508, .uuid-493bf463-7f96-4797-a46a-3a723e4db591, .uuid-39b9eb81-f188-4b68-882b-1df4322a3d43 {
        stroke-width: 2px;
      }

      .uuid-4a1d8c76-cbf4-4f82-bc52-8fdd0f2661f5 {
        fill: url(#uuid-da5b5af8-c600-4119-b5db-09686bf60d45);
      }

      .uuid-4a1d8c76-cbf4-4f82-bc52-8fdd0f2661f5, .uuid-b7c316cf-0621-4738-a5fb-0cfc57b2b893 {
        stroke-width: 0px;
      }

      .uuid-51af91b1-fc04-4aad-bb6d-f9fc19b02e96 {
        stroke: url(#uuid-b3fa20f4-198e-4143-81dc-2f528898f8fd);
      }

      .uuid-51af91b1-fc04-4aad-bb6d-f9fc19b02e96, .uuid-46ce2556-beb8-4381-851e-cd639f0403e2 {
        stroke-width: 4px;
      }

      .uuid-493bf463-7f96-4797-a46a-3a723e4db591 {
        stroke: url(#uuid-80e8c404-4c48-4f69-8e39-d2791ffd6a42);
      }

      .uuid-c1e099e5-45cf-42ab-8c63-8e3ae1b06676 {
        stroke: url(#uuid-a88a42d2-9f3c-4a6b-ab73-7085128cc854);
      }

      .uuid-aad379a3-3aca-481e-939e-21024ca5d0e8 {
        stroke: url(#uuid-6c129cf1-8a39-4a99-a6e0-fad7603923ee);
      }

      .uuid-aad379a3-3aca-481e-939e-21024ca5d0e8, .uuid-f07f572f-8709-4346-b6e1-eff6222c9c5a {
        opacity: .5;
      }

      .uuid-39b9eb81-f188-4b68-882b-1df4322a3d43 {
        stroke: url(#uuid-ace865e9-9707-421d-a60e-ebac52407866);
      }

      .uuid-6991fdd8-51c7-42a8-9934-a9bc8a76f6a0 {
        stroke: url(#uuid-27b59c96-5f81-4778-8277-e1910ca832cf);
      }

      .uuid-3bd36e14-0f75-4497-a677-e6ebe84c21b1 {
        clip-path: url(#uuid-65cbed4f-e297-411d-9c7b-0eb242670d3c);
      }

      .uuid-46ce2556-beb8-4381-851e-cd639f0403e2 {
        stroke: url(#uuid-e9f26843-458e-4be7-9c16-a04d802bb7f9);
      }

      .uuid-f07f572f-8709-4346-b6e1-eff6222c9c5a {
        stroke: url(#uuid-04d8cd41-048e-4697-a918-fae9cbcb473b);
      }

      .uuid-437416d5-1279-4ae6-98e7-3bc072f60c95 {
        stroke: url(#uuid-2110740e-2bd8-4ee3-938d-cc151ffd6a46);
        stroke-width: 6px;
      }

      .uuid-9fa22b19-94f3-48e6-b038-266f26f2b78b {
        stroke: url(#uuid-4a285faf-9235-4266-b456-31c8b324ad0b);
        stroke-width: 3px;
      }

      .uuid-dea90eb6-64b1-4d8f-b00b-583ebe941099 {
        stroke: url(#uuid-1a792ce4-a0bf-4807-bdbc-fdfacfa745f1);
      }
    </style>
    <clipPath id="uuid-65cbed4f-e297-411d-9c7b-0eb242670d3c">
      <rect class="uuid-b7c316cf-0621-4738-a5fb-0cfc57b2b893" width="3000" height="1080"/>
    </clipPath>
    <linearGradient id="uuid-a88a42d2-9f3c-4a6b-ab73-7085128cc854" x1="104.02" y1="-190.48" x2="2934.52" y2="1185.47" gradientUnits="userSpaceOnUse">
      <stop offset="0" stop-color="#c48cf8"/>
      <stop offset="1" stop-color="#8cf893"/>
    </linearGradient>
    <linearGradient id="uuid-80e8c404-4c48-4f69-8e39-d2791ffd6a42" x1="67.58" y1="-208.16" x2="2970.96" y2="1203.21" gradientUnits="userSpaceOnUse">
      <stop offset="0" stop-color="#c48cf8"/>
      <stop offset=".17" stop-color="#c190f3"/>
      <stop offset=".37" stop-color="#ba9ee6"/>
      <stop offset=".59" stop-color="#aeb5d1"/>
      <stop offset=".81" stop-color="#9dd5b3"/>
      <stop offset="1" stop-color="#8cf893"/>
    </linearGradient>
    <linearGradient id="uuid-04d8cd41-048e-4697-a918-fae9cbcb473b" x1="-39.89" y1="-260.42" x2="3078.4" y2="1255.42" xlink:href="#uuid-80e8c404-4c48-4f69-8e39-d2791ffd6a42"/>
    <linearGradient id="uuid-6c129cf1-8a39-4a99-a6e0-fad7603923ee" x1="-21.9" y1="-251.67" x2="3060.4" y2="1246.67" xlink:href="#uuid-80e8c404-4c48-4f69-8e39-d2791ffd6a42"/>
    <linearGradient id="uuid-1a792ce4-a0bf-4807-bdbc-fdfacfa745f1" x1="-3.92" y1="-242.92" x2="3042.42" y2="1237.94" xlink:href="#uuid-80e8c404-4c48-4f69-8e39-d2791ffd6a42"/>
    <linearGradient id="uuid-27b59c96-5f81-4778-8277-e1910ca832cf" x1="14.07" y1="-234.18" x2="3024.46" y2="1229.21" xlink:href="#uuid-80e8c404-4c48-4f69-8e39-d2791ffd6a42"/>
    <linearGradient id="uuid-ace865e9-9707-421d-a60e-ebac52407866" x1="31.61" y1="-225.65" x2="3006.94" y2="1220.7" xlink:href="#uuid-80e8c404-4c48-4f69-8e39-d2791ffd6a42"/>
    <linearGradient id="uuid-c0e9bba0-284d-4394-a649-baf80f457c3e" x1="49.59" y1="-216.9" x2="2988.96" y2="1211.96" xlink:href="#uuid-80e8c404-4c48-4f69-8e39-d2791ffd6a42"/>
    <linearGradient id="uuid-4a285faf-9235-4266-b456-31c8b324ad0b" x1="67.13" y1="-208.38" x2="2971.41" y2="1203.43" xlink:href="#uuid-80e8c404-4c48-4f69-8e39-d2791ffd6a42"/>
    <linearGradient id="uuid-e9f26843-458e-4be7-9c16-a04d802bb7f9" x1="84.68" y1="-199.88" x2="2953.88" y2="1194.88" xlink:href="#uuid-80e8c404-4c48-4f69-8e39-d2791ffd6a42"/>
    <linearGradient id="uuid-b3fa20f4-198e-4143-81dc-2f528898f8fd" x1="102.67" y1="-191.13" x2="2935.87" y2="1186.12" xlink:href="#uuid-80e8c404-4c48-4f69-8e39-d2791ffd6a42"/>
    <linearGradient id="uuid-2110740e-2bd8-4ee3-938d-cc151ffd6a46" x1="119.75" y1="-182.81" x2="2918.78" y2="1177.83" xlink:href="#uuid-80e8c404-4c48-4f69-8e39-d2791ffd6a42"/>
    <linearGradient id="uuid-da5b5af8-c600-4119-b5db-09686bf60d45" x1="140.43" y1="-172.75" x2="2894.72" y2="1166.15" xlink:href="#uuid-80e8c404-4c48-4f69-8e39-d2791ffd6a42"/>
  </defs>
  <g id="uuid-963b25bd-77fd-458b-b917-03a7f226ccbb" data-name="uuid-ee202425-5ce6-4287-8641-6d1d6080a993">
    <g class="uuid-3bd36e14-0f75-4497-a677-e6ebe84c21b1">
      <path class="uuid-c1e099e5-45cf-42ab-8c63-8e3ae1b06676" d="M-36,364s570.7-344,914.7,0c344,344,741.3,128,741.3,128,161.3-87.7,378.9-146.5,561.6-129.9,55.1,5,110.2,18.5,158.6,46.1,62.6,35.7,103.8,103.4,179.3,115.8,64.3,10.6,128.1-27.3,169.9-73.2,47.5-52.1,67.2-119.7,109.2-174.9,0,0,296-389.3,296,0v411c0,28.4,2.5,56.7,3.5,85.1,1,27.1,18.3,89.2-24.1,91.4-11.2.6-22.1-3.4-32.6-7.3-128.83-47.85-265.19-72.69-396.14-113.79-215.08-67.51-452.54-104.74-676.06-49.41-90.17,22.32-173.31,61.55-258.98,95.76-86.71,34.63-179.5,52.17-272.33,59.44-115.59,9.05-231.78,2.53-347.53-4.21-56.65-3.3-113.98-7.04-169.03-21.73-58.21-15.53-105.11-47.76-154.63-80.67-55.5-36.88-104.73-50.86-170.5-44.28-79.5,7.9-154.8,36.1-232.6,52.1-152.4,31.3-318.4,81.7-474.8,65.2-70.3-7.5-163.1-40.4-166.3-124.2,0-1.1-.1-2.3-.1-3.4,0-280,241.6-322.9,241.6-322.9Z"/>
      <path class="uuid-493bf463-7f96-4797-a46a-3a723e4db591" d="M3071.74,903.46c-17.71,0-33.06-5.7-44.26-9.86-73.5-27.3-151.81-47.5-227.54-67.04-54.76-14.13-111.39-28.74-166.66-46.08-157.2-49.34-303.45-74.36-434.67-74.36-77.19,0-151.14,8.62-219.8,25.61-66.08,16.36-130.73,43.25-193.26,69.25-19.78,8.23-40.16,16.7-60.49,24.82-83.7,33.42-176.61,53.75-284.04,62.17-39.18,3.07-80.13,4.56-125.19,4.56-78.03,0-157.56-4.63-227.72-8.71-51.8-3.02-116.17-6.76-177.09-23.02-62.12-16.58-109.78-48.29-160.23-81.86l-6.24-4.15c-41.31-27.45-76.67-39.16-118.23-39.16-8.26,0-17.06.46-26.14,1.37-46.45,4.62-93.68,17.26-139.35,29.49-28.9,7.74-58.78,15.74-89.17,21.99-29.86,6.13-59.74,12.89-91.37,20.05-106.94,24.19-217.5,49.21-327.66,49.21-23.4,0-46.28-1.16-68.03-3.46-27.4-2.92-80.03-11.88-124.85-39.06-23.84-14.46-42.57-32.3-55.66-53.03-13.33-21.11-20.58-44.78-21.56-70.36l-.03-.76v-.73c-.05-.91-.1-2.15-.1-3.43,0-70.38,14.23-133.32,42.29-187.09,22.8-43.68,54.55-81.11,94.37-111.26,55.22-41.8,110.39-57.66,130.27-62.32,19.5-11.24,77.76-43.31,160.76-75.92,58.31-22.91,116.6-41.17,173.25-54.29,71.4-16.54,140.49-24.92,205.33-24.92,168.35,0,309.09,55.38,418.32,164.6,121.58,121.58,263.35,183.23,421.37,183.23s271.43-61.49,272.59-62.11c158.38-86.11,351.63-137.54,516.89-137.54,23.02,0,45.69,1,67.38,2.97,67.1,6.09,125.91,23.31,174.79,51.19,26.81,15.29,49,34.64,70.46,53.35,31.87,27.79,59.39,51.79,95.51,57.72,5.1.84,10.35,1.27,15.61,1.27,38.72,0,82.92-23.15,118.24-61.93,22.95-25.17,39.09-55.72,56.17-88.06,14.79-27.99,30.08-56.94,50.77-84.13,1.41-1.85,35.12-46.02,80.48-90.77,32.06-31.62,62.26-55.88,89.77-72.09,29.21-17.22,56.41-25.95,80.84-25.95,22.49,0,64.14,7.76,90.5,59.76,17.66,34.84,26.25,84.97,26.25,153.26v411c0,16.65.96,34.08,1.89,50.95v.16c.59,10.61,1.2,21.58,1.58,32.58.12,3.35.83,9.22,1.51,14.9,3.42,28.38,8.1,67.25-15,94.69-8.29,9.85-23.43,21.86-48.52,23.16-1.37.07-2.85.11-4.33.11h0Z"/>
      <path class="uuid-f07f572f-8709-4346-b6e1-eff6222c9c5a" d="M3071.74,1023.46c-39.29,0-69.71-11.3-86.05-17.37-67.72-25.15-142.95-44.56-215.71-63.33-56.25-14.51-114.42-29.52-172.64-47.79-145.56-45.69-279.71-68.85-398.74-68.85-67.49,0-131.74,7.43-190.97,22.09-57.23,14.17-117.59,39.27-175.96,63.55l-.41.17c-19.9,8.28-40.47,16.84-61.71,25.32-95.1,37.97-199.5,60.99-319.18,70.36-42.35,3.31-86.36,4.92-134.55,4.92-81.48,0-162.8-4.73-234.54-8.9-57.26-3.33-128.52-7.49-201.22-26.89-81.2-21.67-136.84-58.69-195.75-97.88l-6.21-4.13c-24.16-16.05-36.84-19.1-51.79-19.1-4.29,0-9.06.26-14.2.77-36.8,3.66-79.21,15.01-120.22,25.99-30.6,8.2-62.24,16.67-96.08,23.62-28.69,5.89-57.82,12.49-88.67,19.46l-.23.05c-113.46,25.67-230.74,52.2-354.3,52.2-27.59,0-54.71-1.39-80.62-4.12-37.39-3.99-109.75-16.54-174.48-55.79-39.87-24.17-71.8-54.97-94.9-91.56-24.76-39.21-38.22-82.9-40.01-129.86l-.12-3.02v-.47c-.07-2.08-.1-4.05-.1-6.01,0-89.91,18.81-171.53,55.91-242.61,31.07-59.53,74.24-110.47,128.32-151.41,61.98-46.92,124.3-69.34,157.31-78.78,24.13-13.25,84.24-44.81,162.26-75.46,63.75-25.05,127.7-45.07,190.06-59.51,80.27-18.59,158.46-28.01,232.41-28.01,201.33,0,370.63,67.21,503.17,199.75,98.26,98.26,211.48,148.08,336.52,148.08,62.92,0,118.68-13.22,154.38-24.31,35.63-11.07,58.59-22.15,62.24-23.96,174.9-94.79,389.03-151.38,572.86-151.38,26.63,0,52.95,1.17,78.24,3.46,84.31,7.65,159.47,30.01,223.38,66.45,37.21,21.22,63.98,44.56,89.87,67.14,8.77,7.64,25.62,22.34,34.34,28.14,5.59-2.57,15.96-8.84,27.43-21.43,12.71-13.94,25.37-37.91,38.78-63.29,17.07-32.31,34.72-65.72,61.38-100.76,1.62-2.13,40.31-52.83,91.72-103.54,39.07-38.54,77.13-68.83,113.11-90.04,47.92-28.24,95.62-42.56,141.77-42.56,23.89,0,60.35,4.08,98.4,23.52,42.48,21.71,75.84,56.02,99.13,101.98,26.38,52.05,39.21,119.93,39.21,207.52v411c0,13.41.87,29.1,1.71,44.28v.22c.59,10.55,1.19,21.42,1.62,32.87.12,1.12.36,3.16.79,6.73l.03.22c2.09,17.39,5.6,46.5,1.96,79.19-4.63,41.62-19.53,77.63-44.29,107.05-23.6,28.04-66.02,62.2-134.11,65.73-3.36.18-6.92.27-10.54.27h0Z"/>
      <path class="uuid-aad379a3-3aca-481e-939e-21024ca5d0e8" d="M3071.74,1003.46c-35.7,0-63.93-10.49-79.09-16.12-68.67-25.51-144.42-45.05-217.67-63.94-56.01-14.45-113.92-29.39-171.64-47.51-147.5-46.3-283.67-69.77-404.72-69.77-69.11,0-134.97,7.63-195.78,22.68-58.71,14.53-119.78,39.94-178.84,64.5l-.33.13c-19.83,8.25-40.39,16.8-61.52,25.24-93.2,37.21-195.68,59.78-313.32,68.99-41.82,3.27-85.33,4.86-132.99,4.86-80.89,0-161.9-4.71-233.38-8.87-56.37-3.28-126.49-7.37-197.22-26.25-78.02-20.82-132.33-56.95-189.82-95.21l-6.22-4.13c-24.93-16.57-41.38-22.44-62.86-22.44-4.95,0-10.4.29-16.19.87-38.41,3.82-81.62,15.39-123.41,26.57-30.32,8.12-61.66,16.51-94.92,23.35-28.85,5.93-58.1,12.54-89.06,19.55l-.27.06c-112.4,25.43-228.53,51.7-349.85,51.7-26.89,0-53.31-1.35-78.52-4.01-35.73-3.81-104.79-15.76-166.21-53-37.2-22.55-66.93-51.19-88.36-85.14-22.85-36.19-35.28-76.55-36.94-119.95l-.1-2.65v-.42c-.07-1.97-.1-3.83-.1-5.68,0-86.65,18.05-165.16,53.64-233.35,29.69-56.89,70.96-105.58,122.66-144.72,60.34-45.68,120.79-67.13,152.89-76.11,23.95-13.23,83.54-44.68,161.93-75.47,62.84-24.69,125.85-44.42,187.26-58.64,78.79-18.25,155.47-27.5,227.9-27.5,195.84,0,360.37,65.23,489.03,193.89,102.14,102.15,220.12,153.94,350.66,153.94,65.43,0,123.3-13.71,160.31-25.21,37.79-11.74,61.84-23.46,65.52-25.3,172.17-93.39,382.86-149.13,563.64-149.13,26.02,0,51.74,1.14,76.43,3.38,81.44,7.39,153.88,28.89,215.29,63.91,35.48,20.23,61.49,42.91,86.64,64.85,16.7,14.56,37.4,32.61,45.67,34.36,5.85-.23,24.41-7.7,44.03-29.25,14.42-15.82,27.66-40.88,41.68-67.43,16.69-31.59,33.94-64.25,59.61-97.98,1.59-2.09,39.56-51.81,89.84-101.41,37.9-37.39,74.65-66.67,109.22-87.05,44.8-26.4,89.08-39.79,131.61-39.79,21.69,0,54.79,3.7,89.3,21.33,38.64,19.74,69.05,51.1,90.39,93.21,24.93,49.18,37.05,114.1,37.05,198.47v411c0,13.96.88,29.93,1.74,45.38v.25c.6,10.69,1.21,21.71,1.63,33.18.1.93.34,3.08.89,7.67l.03.22c1.99,16.51,5.32,44.2,1.94,74.59-4.19,37.62-17.55,70.05-39.72,96.39-21.04,25-58.92,55.47-119.85,58.64-3.03.16-6.24.25-9.51.25h0Z"/>
      <path class="uuid-dea90eb6-64b1-4d8f-b00b-583ebe941099" d="M3071.74,983.46c-32.1,0-58.14-9.67-72.12-14.87-69.64-25.86-145.9-45.54-219.64-64.56-55.76-14.38-113.42-29.26-170.65-47.22-149.44-46.91-287.62-70.69-410.71-70.69-70.72,0-138.21,7.83-200.58,23.27-60.19,14.9-121.98,40.6-181.73,65.46l-.26.11c-19.83,8.25-40.38,16.79-61.31,25.16-91.3,36.46-191.87,58.58-307.47,67.63-41.29,3.23-84.28,4.8-131.43,4.8-80.32,0-161.02-4.69-232.23-8.84-55.48-3.23-124.44-7.25-193.22-25.6-74.84-19.97-127.82-55.22-183.9-92.54l-6.22-4.14c-28.29-18.8-48.33-25.79-73.94-25.79-5.61,0-11.73.33-18.18.97-40.02,3.98-84.04,15.76-126.6,27.16-30.06,8.05-61.09,16.36-93.77,23.08-29.09,5.98-58.49,12.63-89.61,19.67l-.19.04c-111.24,25.17-226.26,51.19-345.35,51.19-26.19,0-51.9-1.31-76.42-3.9-34.06-3.63-99.84-14.99-157.94-50.22-34.52-20.93-62.05-47.42-81.82-78.72-20.95-33.18-32.34-70.19-33.86-110.03l-.09-2.27v-.38c-.07-1.86-.1-3.61-.1-5.33,0-83.4,17.28-158.79,51.37-224.1,28.31-54.25,67.68-100.68,117-138.03,58.7-44.44,117.26-64.91,148.44-73.41,23.76-13.22,82.83-44.55,161.62-75.5,61.94-24.33,124-43.77,184.46-57.77,77.31-17.9,152.47-26.98,223.38-26.98,190.34,0,350.11,63.26,474.89,188.04,106.03,106.03,228.77,159.79,364.8,159.79,67.94,0,127.91-14.2,166.25-26.11,40.4-12.55,66.1-25.29,68.85-26.67,169.44-91.96,376.66-146.86,554.39-146.86,25.42,0,50.53,1.11,74.62,3.3,78.57,7.13,148.28,27.78,207.19,61.37,33.75,19.24,58.99,41.26,83.41,62.55,23.6,20.58,42.24,36.84,55.9,39.08.84.14,1.73.21,2.64.21,12.76,0,36.69-11.2,59.09-35.79,16.13-17.69,29.95-43.85,44.58-71.55,16.31-30.88,33.17-62.79,57.84-95.21,1.56-2.05,38.7-50.68,87.97-99.28,36.73-36.23,72.17-64.51,105.33-84.05,41.68-24.57,82.55-37.02,121.46-37.02,19.5,0,49.23,3.32,80.2,19.14,34.79,17.77,62.26,46.19,81.66,84.45,23.48,46.31,34.89,108.28,34.89,189.43v411c0,14.48.9,30.75,1.77,46.48v.26c.61,10.78,1.22,21.92,1.63,33.44.07.68.29,2.78,1,8.69l.02.19c3.98,33.05,12.22,101.74-33.22,155.74-18.49,21.97-51.82,48.75-105.58,51.54-2.7.14-5.56.22-8.47.22h0Z"/>
      <path class="uuid-6991fdd8-51c7-42a8-9934-a9bc8a76f6a0" d="M3071.74,963.46c-28.5,0-52.35-8.86-65.16-13.62-70.61-26.23-147.38-46.03-221.61-65.18-55.52-14.32-112.92-29.13-169.66-46.94-151.38-47.51-291.58-71.61-416.7-71.61-72.34,0-141.44,8.02-205.39,23.85-61.66,15.26-124.17,41.26-184.61,66.41l-.2.08c-19.83,8.25-40.39,16.8-61.1,25.07-89.4,35.7-188.05,57.37-301.61,66.26-40.77,3.19-83.25,4.74-129.87,4.74-79.75,0-160.17-4.68-231.12-8.81-54.56-3.18-122.36-7.12-189.17-24.96-71.66-19.12-123.31-53.49-177.98-89.87l-6.23-4.14c-31.55-20.96-55.38-29.13-85.01-29.13-6.28,0-13.06.36-20.17,1.07-41.62,4.14-86.44,16.13-129.78,27.74-29.75,7.97-60.51,16.2-92.63,22.81-29.34,6.03-58.9,12.71-90.18,19.79-110.17,24.92-224.08,50.69-340.93,50.69-25.49,0-50.5-1.27-74.32-3.79-32.4-3.46-94.89-14.21-149.67-47.43-31.85-19.31-57.18-43.64-75.28-72.29-19.04-30.16-29.4-63.84-30.79-100.11l-.07-1.89v-.36c-.07-1.76-.1-3.39-.1-4.96,0-80.14,16.52-152.43,49.1-214.85,26.93-51.6,64.39-95.79,111.34-131.33,57.06-43.19,113.7-62.67,143.95-70.68,23.57-13.22,82.08-44.41,161.35-75.55,61.03-23.98,122.15-43.12,181.66-56.9,75.83-17.56,149.47-26.47,218.87-26.47,184.84,0,339.86,61.29,460.75,182.18,109.92,109.92,237.41,165.65,378.94,165.65,70.45,0,132.52-14.69,172.18-27.01,42.89-13.33,69.61-26.74,72.21-28.06,166.7-90.53,370.45-144.57,545.09-144.57,24.82,0,49.32,1.08,72.81,3.22,75.7,6.87,142.69,26.66,199.09,58.82,32.01,18.26,56.5,39.6,80.17,60.25,27.01,23.56,46.53,40.57,65.8,43.74,1.91.31,3.88.47,5.88.47,21.46,0,50.46-16.61,73.88-42.33,17.84-19.57,32.24-46.83,47.48-75.69,15.93-30.15,32.39-61.32,56.07-92.43,1.53-2,37.87-49.58,86.1-97.15,35.56-35.08,69.69-62.35,101.44-81.06,38.57-22.73,76.01-34.25,111.3-34.25,17.3,0,43.68,2.94,71.1,16.95,30.94,15.81,55.48,41.27,72.92,75.68,22.02,43.44,32.73,102.45,32.73,180.39v411c0,15.05.92,31.62,1.8,47.65v.08c.6,10.9,1.22,22.12,1.63,33.66.08,1.11.45,4.43,1.11,9.88l.02.14c3.92,32.55,11.21,93.14-28.66,140.52-15.94,18.94-44.73,42.03-91.31,44.45-2.36.13-4.88.19-7.44.19h0Z"/>
      <path class="uuid-39b9eb81-f188-4b68-882b-1df4322a3d43" d="M3071.74,943.46c-24.91,0-45.75-7.74-58.2-12.37-71.57-26.58-148.85-46.52-223.58-65.8-55.27-14.26-112.42-29-168.65-46.65-153.32-48.12-295.54-72.52-422.69-72.52-73.96,0-144.67,8.22-210.19,24.44-63.14,15.63-126.36,41.93-187.51,67.36l-.14.06c-19.83,8.25-40.34,16.78-60.88,24.98-87.5,34.94-184.24,56.17-295.75,64.9-40.24,3.15-82.21,4.68-128.31,4.68-79.21,0-159.34-4.66-230.05-8.78-53.58-3.12-120.24-7-185.08-24.31-68.48-18.27-118.8-51.75-172.07-87.2l-6.23-4.14c-34.71-23.07-62.55-32.47-96.08-32.47-6.94,0-14.39.39-22.16,1.17-43.23,4.29-88.85,16.51-132.96,28.32-29.49,7.9-59.95,16.05-91.49,22.54-29.53,6.07-59.18,12.77-90.57,19.88-109.12,24.69-221.91,50.2-336.52,50.2-24.79,0-49.09-1.24-72.22-3.68-30.73-3.28-89.93-13.44-141.4-44.64-29.18-17.69-52.31-39.86-68.74-65.87-17.14-27.14-26.46-57.49-27.71-90.19l-.06-1.51v-.37c-.07-1.65-.1-3.15-.1-4.57,0-76.89,15.76-146.06,46.83-205.59,25.55-48.96,61.11-90.9,105.68-124.64,55.41-41.95,110.12-60.42,139.43-67.93,23.38-13.21,81.32-44.29,161.11-75.64,60.12-23.62,120.3-42.47,178.85-56.03,74.36-17.22,146.48-25.95,214.36-25.95,179.35,0,329.6,59.32,446.6,176.32,113.8,113.81,246.06,171.51,393.08,171.51s249.7-55.31,253.73-57.38c163.95-89.08,364.21-142.26,535.76-142.26,24.22,0,48.11,1.05,71,3.13,72.84,6.61,137.09,25.54,190.99,56.28,30.28,17.26,54,37.95,76.93,57.95,29.5,25.73,50.82,44.31,75.7,48.4,2.97.49,6.04.74,9.12.74,27.24,0,61.22-18.72,88.66-48.86,19.54-21.44,34.52-49.79,50.38-79.81,15.55-29.43,31.62-59.86,54.3-89.67,1.49-1.96,37.06-48.49,84.23-95.02,34.39-33.93,67.21-60.2,97.55-78.07,35.45-20.89,69.48-31.49,101.15-31.49,15.1,0,38.12,2.56,62,14.76,27.1,13.84,48.69,36.36,64.18,66.91,20.57,40.58,30.57,96.63,30.57,171.35v411c0,15.57.93,32.44,1.83,48.75v.1c.6,10.85,1.22,22.01,1.62,33.43.07,1.68.87,8.32,1.25,11.51,3.81,31.62,10.17,84.52-24.11,125.25-13.39,15.91-37.63,35.31-77.05,37.35-2.04.11-4.2.17-6.4.17h0Z"/>
      <path class="uuid-d3f471e8-a3ce-4947-8ddc-bb5b03765508" d="M3071.74,923.46c-21.31,0-39.32-6.69-51.23-11.11-72.53-26.94-150.32-47.01-225.55-66.42-55.04-14.2-111.91-28.87-167.66-46.37-155.26-48.73-299.49-73.44-428.68-73.44-75.57,0-147.91,8.42-215,25.02-64.61,15.99-128.55,42.59-190.38,68.31-19.82,8.24-40.3,16.76-60.75,24.93-85.6,34.18-180.42,54.96-289.9,63.53-39.71,3.11-81.17,4.62-126.75,4.62-78.62,0-158.45-4.65-228.88-8.75-52.66-3.07-118.2-6.88-181.09-23.67-65.3-17.43-114.29-50.02-166.15-84.53l-6.23-4.14c-37.78-25.11-69.83-35.82-107.15-35.82-7.6,0-15.73.43-24.15,1.27-44.84,4.46-91.27,16.88-136.16,28.9-29.19,7.82-59.36,15.9-90.33,22.26-29.73,6.11-59.48,12.84-90.99,19.97-108.01,24.44-219.69,49.7-332.07,49.7-24.09,0-47.69-1.2-70.12-3.57-29.07-3.1-84.98-12.66-133.12-41.85-26.51-16.07-47.44-36.08-62.2-59.45-15.23-24.12-23.52-51.13-24.63-80.28l-.04-1.14v-.41c-.04-1.01-.1-2.51-.1-4.15,0-73.63,14.99-139.69,44.56-196.34,24.18-46.32,57.83-86,100.03-117.95,55.55-42.05,110.91-59.23,134.87-65.15,23.17-13.22,80.49-44.16,160.91-75.76,59.21-23.26,118.45-41.82,176.05-55.16,72.88-16.88,143.48-25.44,209.85-25.44,173.85,0,319.35,57.35,432.46,170.46,117.69,117.69,254.7,177.37,407.23,177.37s260.32-58.26,263.12-59.73c161.18-87.61,357.94-139.92,526.36-139.92,23.62,0,46.9,1.03,69.19,3.05,69.97,6.35,131.5,24.43,182.89,53.73,28.54,16.28,51.5,36.29,73.7,55.65,30.79,26.85,55.1,48.05,85.61,53.06,4.04.67,8.19,1,12.37,1,33.19,0,71.86-20.71,103.45-55.39,21.25-23.31,36.81-52.76,53.28-83.94,15.17-28.72,30.85-58.4,52.53-86.9,1.45-1.9,36.04-47.21,82.36-92.9,33.23-32.77,64.74-58.03,93.66-75.08,32.33-19.05,62.94-28.72,91-28.72,12.91,0,32.56,2.18,52.9,12.57,23.25,11.88,41.9,31.44,55.44,58.14,19.11,37.71,28.41,90.8,28.41,162.31v411c0,16.1.95,33.26,1.86,49.85v.16c.6,10.76,1.21,21.81,1.6,32.98.09,2.5.81,8.44,1.38,13.21,3.64,30.22,9.13,75.88-19.55,109.96-10.84,12.88-30.53,28.58-62.78,30.26-1.71.09-3.53.14-5.37.14h0Z"/>
      <path class="uuid-9fa22b19-94f3-48e6-b038-266f26f2b78b" d="M3071.74,903.46c-17.71,0-33.06-5.7-44.26-9.86-73.5-27.3-151.81-47.5-227.54-67.04-54.76-14.13-111.39-28.74-166.66-46.08-157.2-49.34-303.45-74.36-434.67-74.36-77.19,0-151.14,8.62-219.8,25.61-66.08,16.36-130.73,43.25-193.26,69.25-19.78,8.23-40.16,16.7-60.49,24.82-83.7,33.42-176.61,53.75-284.04,62.17-39.18,3.07-80.13,4.56-125.19,4.56-78.03,0-157.56-4.63-227.72-8.71-51.8-3.02-116.17-6.76-177.09-23.02-62.12-16.58-109.78-48.29-160.23-81.86l-6.24-4.15c-41.31-27.45-76.67-39.16-118.23-39.16-8.26,0-17.06.46-26.14,1.37-46.45,4.62-93.68,17.26-139.35,29.49-28.9,7.74-58.78,15.74-89.17,21.99-29.86,6.13-59.74,12.89-91.37,20.05-106.94,24.19-217.5,49.21-327.66,49.21-23.4,0-46.28-1.16-68.03-3.46-27.4-2.92-80.03-11.88-124.85-39.06-23.84-14.46-42.57-32.3-55.66-53.03-13.33-21.11-20.58-44.78-21.56-70.36l-.03-.76v-.73c-.05-.91-.1-2.15-.1-3.43,0-70.38,14.23-133.32,42.29-187.09,22.8-43.68,54.55-81.11,94.37-111.26,55.22-41.8,110.39-57.66,130.27-62.32,19.5-11.24,77.76-43.31,160.76-75.92,58.31-22.91,116.6-41.17,173.25-54.29,71.4-16.54,140.49-24.92,205.33-24.92,168.35,0,309.09,55.38,418.32,164.6,121.58,121.58,263.35,183.23,421.37,183.23s271.43-61.49,272.59-62.11c158.38-86.11,351.63-137.54,516.89-137.54,23.02,0,45.69,1,67.38,2.97,67.1,6.09,125.91,23.31,174.79,51.19,26.81,15.29,49,34.64,70.46,53.35,31.87,27.79,59.39,51.79,95.51,57.72,5.1.84,10.35,1.27,15.61,1.27,38.72,0,82.92-23.15,118.24-61.93,22.95-25.17,39.09-55.72,56.17-88.06,14.79-27.99,30.08-56.94,50.77-84.13,1.41-1.85,35.12-46.02,80.48-90.77,32.06-31.62,62.26-55.88,89.77-72.09,29.21-17.22,56.41-25.95,80.84-25.95,22.49,0,64.14,7.76,90.5,59.76,17.66,34.84,26.25,84.97,26.25,153.26v411c0,16.65.96,34.08,1.89,50.95v.16c.59,10.61,1.2,21.58,1.58,32.58.12,3.35.83,9.22,1.51,14.9,3.42,28.38,8.1,67.25-15,94.69-8.29,9.85-23.43,21.86-48.52,23.16-1.37.07-2.85.11-4.33.11h0Z"/>
      <path class="uuid-46ce2556-beb8-4381-851e-cd639f0403e2" d="M3071.74,883.46c-14.11,0-26.97-4.77-37.3-8.61-74.47-27.66-153.29-47.99-229.5-67.66-54.52-14.07-110.9-28.61-165.66-45.8-159.15-49.95-307.41-75.28-440.66-75.28-78.81,0-154.38,8.81-224.61,26.2-67.55,16.72-132.92,43.91-196.13,70.2-19.67,8.18-40.01,16.64-60.23,24.72-81.8,32.66-172.79,52.55-278.18,60.8-38.66,3.03-79.1,4.5-123.63,4.5-77.48,0-156.72-4.61-226.63-8.68-50.82-2.96-114.07-6.64-173.03-22.38-58.94-15.73-105.26-46.55-154.31-79.18l-6.24-4.15c-44.84-29.8-83.51-42.51-129.3-42.51-8.92,0-18.38.49-28.13,1.47-48.06,4.77-96.09,17.63-142.53,30.07-28.64,7.67-58.26,15.6-88.03,21.72-30.05,6.17-60.02,12.95-91.75,20.13-105.86,23.95-215.32,48.71-323.25,48.71-22.7,0-44.88-1.13-65.93-3.35-25.74-2.75-75.07-11.11-116.58-36.28-42.54-25.79-65.91-62.81-67.6-107.05v-.38s-.01-.38-.01-.38c0-.27-.02-.55-.03-.83-.04-.87-.07-1.74-.07-2.57,0-67.12,13.46-126.95,40.02-177.83,21.42-41.04,51.26-76.22,88.71-104.56,55.48-42,110.74-56.2,125.59-59.43,13.96-8.15,73.69-41.96,160.68-76.13,57.4-22.55,114.74-40.52,170.45-53.42,69.92-16.19,137.49-24.4,200.82-24.4,162.85,0,298.84,53.41,404.18,158.75,125.47,125.47,271.99,189.08,435.51,189.08s280.91-63.87,282.09-64.51c155.63-84.62,345.31-135.13,507.39-135.13,22.42,0,44.48.97,65.57,2.89,64.23,5.83,120.32,22.19,166.7,48.64,25.08,14.3,46.5,32.98,67.22,51.06,32.75,28.56,63.68,55.53,105.41,62.38,6.16,1.02,12.5,1.53,18.85,1.53,44.26,0,93.99-25.59,133.02-68.46,24.66-27.04,41.37-58.69,59.07-92.18,14.41-27.28,29.31-55.49,49-81.36,1.37-1.81,34.26-44.89,78.61-88.64,62.07-61.23,114.75-92.27,156.56-92.27,21.86,0,52.21,8.47,72.66,48.8,16.21,31.97,24.08,79.15,24.08,144.22v411c0,17.19.98,34.91,1.92,52.05.58,10.56,1.18,21.49,1.57,32.34.16,4.21.88,10.22,1.65,16.59,3.14,26.12,7.06,58.63-10.45,79.42-5.74,6.82-16.33,15.14-34.25,16.07-1.06.06-2.19.09-3.3.09Z"/>
      <path class="uuid-51af91b1-fc04-4aad-bb6d-f9fc19b02e96" d="M-36,364s570.7-344,914.7,0c344,344,741.3,128,741.3,128,161.3-87.7,378.9-146.5,561.6-129.9,55.1,5,110.2,18.5,158.6,46.1,62.6,35.7,103.8,103.4,179.3,115.8,64.3,10.6,128.1-27.3,169.9-73.2,47.5-52.1,67.2-119.7,109.2-174.9,0,0,296-389.3,296,0v411c0,28.4,2.5,56.7,3.5,85.1,1,27.1,18.3,89.2-24.1,91.4-11.2.6-22.1-3.4-32.6-7.3-128.83-47.85-265.19-72.69-396.14-113.79-215.08-67.51-452.54-104.74-676.06-49.41-90.17,22.32-173.31,61.55-258.98,95.76-86.71,34.63-179.5,52.17-272.33,59.44-115.59,9.05-231.78,2.53-347.53-4.21-56.65-3.3-113.98-7.04-169.03-21.73-58.21-15.53-105.11-47.76-154.63-80.67-55.5-36.88-104.73-50.86-170.5-44.28-79.5,7.9-154.8,36.1-232.6,52.1-152.4,31.3-318.4,81.7-474.8,65.2-70.3-7.5-163.1-40.4-166.3-124.2,0-1.1-.1-2.3-.1-3.4,0-280,241.6-322.9,241.6-322.9Z"/>
      <path class="uuid-437416d5-1279-4ae6-98e7-3bc072f60c95" d="M3071.74,843.46c-6.92,0-15.28-3.1-23.37-6.11-76.41-28.38-156.24-48.97-233.44-68.89-54.03-13.94-109.9-28.35-163.68-45.23-163.03-51.17-315.32-77.11-452.64-77.11-82.04,0-160.84,9.21-234.22,27.37-70.5,17.45-137.29,45.23-201.88,72.1-19.54,8.13-39.75,16.53-59.7,24.5-78,31.14-165.16,50.14-266.47,58.07-37.62,2.95-77.03,4.38-120.5,4.38-76.31,0-154.94-4.58-224.31-8.62-62.33-3.63-114.06-7.49-165.04-21.09-52.58-14.03-96.24-43.08-142.46-73.84l-6.26-4.16c-51.2-34.02-97.91-49.19-151.44-49.19-10.24,0-21.05.56-32.11,1.67-51.28,5.09-100.9,18.38-148.9,31.23-28.08,7.52-57.12,15.29-85.74,21.18-30.43,6.25-62,13.39-92.52,20.3-103.72,23.46-210.96,47.73-314.42,47.73-21.3,0-42.07-1.05-61.73-3.13-22.38-2.39-65.17-9.55-100.04-30.7-30.83-18.69-47.1-43.62-48.36-74.09,0-.68-.03-1.39-.07-2.09-.01-.28-.03-.57-.03-.84,0-60.18,11.77-113.46,34.99-158.37,18.44-35.67,44.2-66.33,76.56-91.12,55.91-42.84,113.02-53.61,113.59-53.72l3.6-.66,3.18-1.9c.62-.37,63.66-38.08,158.46-75.26,55.49-21.76,110.86-39.09,164.57-51.5,66.79-15.43,131.16-23.26,191.31-23.26,151.86,0,278.33,49.47,375.89,147.03,133.24,133.24,289.28,200.8,463.8,200.8,89.65,0,166.49-18.73,215.16-34.44,53.01-17.11,84.71-34.21,86.04-34.93,71.05-38.63,152.41-71.05,235.29-93.77,87.14-23.88,174.63-36.51,252.99-36.51,21.21,0,42.06.92,61.95,2.72,58.49,5.31,109.13,19.96,150.5,43.56,21.61,12.32,40.62,28.9,60.75,46.46,35.52,30.98,72.25,63.01,125.22,71.71,8.28,1.37,16.81,2.06,25.33,2.06,56.15,0,115.41-29.72,162.6-81.53,28.07-30.79,46.78-66.19,64.86-100.43,14.28-27.04,27.77-52.57,45.47-75.82.32-.43,32.79-42.93,75.19-84.7,52.65-51.87,98.16-80.44,128.16-80.44,10.02,0,24.76,2.79,36.98,26.89,13.11,25.87,19.76,68.31,19.76,126.14v411c0,18.29,1.01,36.57,1.98,54.25.57,10.37,1.16,21.09,1.53,31.55.22,5.94,1.04,12.75,1.91,19.96,1.24,10.32,2.65,22.01,2.38,32.07-.32,11.58-2.7,15.62-3.71,16.82-.38.45-1.39,1.65-5.72,1.88-.43.02-.83.03-1.23.03Z"/>
      <path class="uuid-4a1d8c76-cbf4-4f82-bc52-8fdd0f2661f5" d="M3062.42,821.16c-2.43-.82-4.92-1.75-7.09-2.56-77.37-28.74-157.69-49.46-235.38-69.5-53.85-13.89-109.45-28.24-162.72-44.96-164.97-51.78-319.27-78.03-458.63-78.03-83.66,0-164.08,9.41-239.02,27.95-71.98,17.82-139.48,45.89-204.76,73.04-19.5,8.11-39.63,16.48-59.44,24.39-76.09,30.39-161.34,48.93-260.62,56.71-37.08,2.9-75.98,4.32-118.94,4.32-75.7,0-153.99-4.56-223.06-8.58-61.26-3.57-111.97-7.33-161.12-20.45-49.4-13.18-91.73-41.35-136.54-71.17l-6.27-4.17c-54.68-36.34-104.8-52.54-162.51-52.54-10.91,0-22.39.59-34.11,1.77-52.88,5.25-103.31,18.75-152.08,31.81-27.81,7.44-56.55,15.14-84.6,20.91-30.55,6.27-62.15,13.42-92.71,20.34l-.19.04c-102.64,23.22-208.78,47.24-310.01,47.24-20.6,0-40.66-1.01-59.63-3.02-20.71-2.21-60.22-8.78-91.77-27.91-25.01-15.16-37.68-34-38.74-57.57-.01-.79-.04-1.59-.08-2.4v-.23c.03-56.84,11.05-106.93,32.74-148.9,17.08-33.04,40.95-61.44,70.96-84.43,51.39-39.37,104.57-49.83,105.1-49.93l7.07-1.29,6.29-3.75c.67-.4,62.92-37.5,155.52-73.81,54.58-21.4,109.01-38.44,161.77-50.63,65.32-15.09,128.17-22.75,186.81-22.75,146.36,0,268.07,47.5,361.75,141.17,137.13,137.13,297.93,206.66,477.94,206.66,92.25,0,171.27-19.25,221.3-35.4,54.78-17.68,88.06-35.64,89.45-36.4,69.71-37.9,149.6-69.73,231.02-92.05,85.44-23.42,171.1-35.8,247.71-35.8,20.61,0,40.85.89,60.14,2.64,55.62,5.05,103.54,18.85,142.41,41.01,19.88,11.34,38.16,27.28,57.51,44.16,35.88,31.29,76.54,66.75,135.12,76.37,9.35,1.54,18.96,2.32,28.57,2.32,61.77,0,126.42-32.1,177.38-88.06,29.78-32.66,49.08-69.21,67.76-104.55,13.9-26.32,27.02-51.13,43.7-73.06.31-.41,32.2-42.06,73.31-82.56,70.34-69.3,105.13-74.68,114.12-74.68,4.14,0,11.07,0,19.14,15.93,8.03,15.84,17.6,49.02,17.6,117.09v411c0,18.86,1.02,37.41,2.01,55.35.57,10.28,1.15,20.89,1.51,31.15.25,6.82,1.12,14.02,2.04,21.65,1.03,8.53,2.18,18.07,2.26,26.11Z"/>
    </g>
  </g>
</svg>