<svg xmlns="http://www.w3.org/2000/svg" width="59" height="59" viewBox="0 0 59 59">
  <path id="linkedin" d="M-9313.5-2948a29.312,29.312,0,0,1-11.481-2.318,29.4,29.4,0,0,1-9.378-6.322,29.421,29.421,0,0,1-6.322-9.377A29.324,29.324,0,0,1-9343-2977.5a29.322,29.322,0,0,1,2.318-11.482,29.415,29.415,0,0,1,6.322-9.377,29.411,29.411,0,0,1,9.378-6.322A29.311,29.311,0,0,1-9313.5-3007a29.321,29.321,0,0,1,11.483,2.318,29.4,29.4,0,0,1,9.377,6.322,29.4,29.4,0,0,1,6.321,9.377A29.322,29.322,0,0,1-9284-2977.5a29.325,29.325,0,0,1-2.318,11.483,29.4,29.4,0,0,1-6.321,9.377,29.4,29.4,0,0,1-9.377,6.322A29.325,29.325,0,0,1-9313.5-2948Zm3.7-29.535c2.157,0,2.157,2.044,2.157,3.536v6.5h4.137l0-7.334c0-3.3-.6-6.354-4.969-6.354a4.382,4.382,0,0,0-3.923,2.157h-.059v-1.822h-3.975v13.354h4.141v-6.612C-9312.284-2975.805-9311.989-2977.536-9309.8-2977.536Zm-13.372-3.318v13.354h4.148v-13.354Zm2.073-6.645a2.4,2.4,0,0,0-2.4,2.4,2.415,2.415,0,0,0,2.4,2.422,2.414,2.414,0,0,0,2.4-2.422A2.4,2.4,0,0,0-9321.1-2987.5Z" transform="translate(9343.001 3007)" fill="#fff"/>
</svg>
